<svg xmlns="http://www.w3.org/2000/svg" width="512" height="512" display="block"><path fill="#161b1b" d="M215.7 84.3h14.6l13 1.2 9.2 1.5 18.5 4.6 11.9 3.8 4.6 2 9.2 3.8 4.6 1.5 4.6 2 7.6 2.6 7.3 2.7 5 1.6 7 1.9 2.6.7 8.5 2 11.8 2.3 10.4 1.5 9.6 1.1 6.5.8 11.5.8 13.8 1.5 5.4 1.2 10 2.3 7.7 2.7 5.7 2.6 4.2 2.3 6.6 4.6 4.6 4.3 4.2 4.2 3 4.2 2.4 3.5 3 6.9 2 6.1 1 7.7v13l-1 7.7-2 7.7-1.5 4.2-4.2 10-3.9 6.9-4.2 6.9-4.2 6.5 1.5.8 5 3.4 6.2 4.6 5.3 4.6 3.9 3.9 3 4.2v.7l-10 .8H457v.8l2 .7 4.2 3.5 3.8 4.2 3.8 6.2 4.6 10 3.5 6.5 4.6 6.5 4.2 4.6 5.4 5 3 2.7 4.3 3.8 3 2.7 3.1 3.4 2 3.5 2.2 5.7 1.6 7 .4 3v10.8l-.8 4.6-1.5 4.6-1.6-.8-4.2-4.6v11.5l-1.5 7.7-2.3 6.9-3.5 7.3-3 4.6-2.7 3 13.8 2.3 5 1.6 2.3 1.5-.4 1.5-3.9 2-8 1.9-13 1.9-21.5 2.3-22 1.5-36.4 2-31 1.1-4.3 2.7-5.7 2.7-5 1.5-6.9 1.5h-1.5l-2-6-.3-1.6-4.6.4-5.8 2.6-6.1 2.3-10 2.7-4.2.8-5 .4h-12.7l-6.1-.8-10.8-2.7-6.1-1.5-10.7-2.7h-53.8l-5.3 1.5-2.3.8-4.2 2-6.2 1h-12.3l-4.2-.7-1.5-.8v.8l-2 1.2-2.6.7-3 .4H162l-5.4-.8-7.3-1.9-6-1.9-8.1-2.7-4.3-1.5-16-.8-40.4-1.9-25.7-2-11.9-1-6.5-.8-15.3-2-7.7-1.5-6.1-1.9-2-1.2.4-1.9 3-1.5 8.5-2 9.2-1-3.8-5.4-3-6.2-2-4.6-1.5-6.1v-4.6h-.8v.7L5.1 376l-2.7 2h-.8l-.7-5.5V358l.7-5 1.6-6.6 1.9-6 3.4-8.1 4.3-8.1 5-7 3.4-3.7 2.7-3.1.8-.8-10-1.1-3.9-.8.4-2.3 4.3-7 3.8-5.3 4.6-5.3 5.7-5.8 5.4-4.2L39 275l3-6.1 4.2-7.7 3.9-5.4 4.2-5.4 4.6-5.3 4.2-4.6 9.2-9.2 4.3-3.5 6-5 7-5 8-5 9.6-5v-2.6l-.7-3.9-.4-3.8v-19.6l1.5-9.6 2.3-9.2 2.7-8 3.5-7.7 3.8-7 3-4.5 5-6.5 5.4-5.8 4.3-4.2 3-2.7 6.2-5 5.3-3.8 6.2-3.9 6.9-3.8 5.7-2.7 6.2-2.3 7.6-2.3 6.6-1.5 7.6-1.2 5-.7 5.4-.8z"/><path fill="#414546" d="m319.3 182.5 4.6 1.2 6.1 3 6.6 3.9 4.2 3 5 4.7 3.4 3.8 2.7 3.8 3 6.2 1.6 4.6 1.6-2 3-5.7 2.3-5.4 1.6-6.1.3-2 1.6.8 4.2 5.8 3 6.1 2.4 6.2 1.1 6.1v3l3.9-1.8 4.6-1.6 5.3-.7h5.4l4.6.7 5.8 2 8 3.8 2.7 1.9v.4l-7 1.1-7.6 2.7-6.9 3-1.1.5v.7h12.2l5 .4 9.6 2.3 7.3 3.1 10.4 6.1 7.6 5.4 1.6 1.5-5.8.8-6.1 1.5-6.2 3.1-1.5 1.5h3.8l9.3 2 6 3 4 3.1 3.8 3.8 4.2 6.2 3 5.7 4.3 10 2.7 5 4.2 6.1 3.8 5 3.5 3.5 3 2.7 1.2.7v.8l1.5.8 5.4 5.3 3.4 4.6 3.1 5.4 2 4.2 1.5 5h-.8l-2.3-3-2.7-2.4-4.6-3-4.6-2-6.1-3-.8-.4v.8h.8l3.8 5.3 4.6 8.9 2.3 7.3.8 4.2v8.8l-2 7.3-2.6 6.1-3.5 5.4-3.4 4.2-5.4 5.4-3.8 2.3-3.1 1.1.8-3.4v-8l-.8-3.9-2-5-3-4.6-3.8-4.2v-.8l-2-.7-2.3-2-1.5-.7v-.8l-2.3-.4v-.8l-2.3-.7-5-2-.4-1-.3-11.6-1.2-2v-.7l2.3.8 3.8 3v.8h.8l2.3 2.7 1.2.8v.7h1.1v-3.8l1.5-14.2v-16.9l-1.5-8.4-2.3-6.2-2-4.6-3-7.2-3-5.8-2-2.7-1.5-1.5-2.7-3-1.9-1.6-2-1.2 1.6 3.5 2.3 5.3 3 8.1 2.8 8.4 1.1 4.6 1.2 7 .4 1.5v21l-2.7-2.2-5-3.8-6.2-3.1-6.5-1.2 1.6 2.7v1.2h.7l2.3 6.1 1.6 6.5 1.1 6.2.4 4.2h-2l-1.8-1.2-6.2-1.1-10.7-1.2-.8-.3 1.2 1.9 1.9 1.9 2.7 2.7 1.5 2.3-.4.7-5 .4-3.8.8-4.6.8-5.8 2.3h-.7v.7l-2 1.2-1.9-.4-2.7-4.2-3.8-5-3.4-3.8-4.3-3.5-4.6-3.5-4.6-2.6-6.5-2.7-6.1-1.6-2-.7 2 1.9 5 4.2 5 3.8 5.7 5.4 3.5 3.9 4.2 6.1 3 6.1 2.3 6.2.8 3.8v8.8l-.8 3.1-.7-.4-1.6-3.8-2.3-4.2-3-3.9-4.3-3.4-2.3-1.6 3.1 5 2 5.8.7 4.6v5.7l-1.1 4.6-2 3.9-4.6 5.3-3.4 3.1-5 3-1.2.5-.3-7-.8-3.8-2-4.6-2.6-3.8-.8-.4v7l-.4 3-1.1-.4-2.3-4.2-4.2-5.4-3.1-3-4.2-3.5-5-5-3.5-5-2.3-4.6-.7-3v-3.9l8-2 1.6-.7-.8-3.8V354l1.5-2.3h2l2.2 3 1.2 2.8 1.5.7 2.3-.3 2.3-1.6 2-1.9 1.5-2.7.7-3V344l-1.1-3.4-1.5-2.7-1.6-2-5-3.7-5-2.3-5.3-1.6-6.2-1.1h-8l-6.2 1.5-3.4 1.5-2.3 2-2 3.8-.3 1.5v5.8l2.3 4.2 2.3 2 2 .3 4.1-3.5.8-.3h2.7l.8.3v2.4l-2.3 3.8-2.3 2-3.5.3 2.3 4.2 3.8 3.8 2.3 1.6-.3 3.4-3.5 3.9-5 3-8 2.7-5.4 1.2-6.5 1.1-6.6.8h-7.6l.4-2 2.6-3.4h-1.1l-6.5 2.3-5 1.6-6.2 2.6-8 3.9-6.2 3.4-5.3 3.9-2.3 1.5h-.8l-.8-2.3v-4.2l1.6-7 1.9-4.5 2.7-4.2 5.3-6.6 3.5-3-6.1 2.3-5.4 3-4.6 3.5-4.6 4.2-3.5 4.2-1.1.8v-5l.7-6.1 2.3-7 3.1-5 2.7-3.4 3.5-3.8 3.8-3.5 5-3.4 5.4-3 5.7-2h1.5v-.8l-3.8-1.1-3.4-1.2-3.1-.4v-.7l6.5-3.1 9.6-3 7.7-1.6 3-.4h12l6.8 1.2h1.6l-2.7-3.1-2.7-2.3.8-.4.7.4v.8l1.6-.4 1.5.4-1.1-1.2-4.7-1.5-5-1.6-2.6-.3h-12.7l-8 1.5-8.1 2.7-6.5 3-5 3.5-5 4.6-3 4.2 5.3.8-2 2-5.3 4.1-5.4 5.8-3.4 5.4-3.5 6.5h-1.1l-.8-.4v-.8l-1.9-.7-4.2-3.1-3.9-2.3.4-3 2-5.5 3-5.7 2.7-4.2 4.2-4.6 4.6-3.5 6.2-3.8 6.9-4.2.7-.4-10 1.1-4.2 1.2-5 1.9-6 3-2.8 1.2h-1.1v.8l-3.9 2.3h-1.5l.4-2 1.5-1.5h.8l.8-1.5 1.1-1.5h.8l.7-1.6 4.7-6.1 3.8-7 1.5-3 2-5 1.5-5 2.3-6.9.7-3.4 1.2-3.5 1.1-4.2h.8l.4-3.4 2.3-6.2 2.3-7.3 2.3-5 3-6.1 4-6.1 3-3.9 3.4-3.8 4.6-4.2 3.5-2.7 5.4-3.5 3.4-1.9-5.7 1.2-6.2 1.9-6.5 3-6.1 4.3-4.3 3.4h-.7v.8l-3.1 2.7-2.7 2.7-3.8 5-4.6 7.6-1.6 2.7-.3 1.5h-.8l-.4 3.5-1.1 6.5h-.8v2.3l-1.5 5.4-1.2 5.7-3.4 12.7-1.6 3-1.9 4.7-3 6.1-2.8 4.2-2.3 3.1-3 3.5-3.9 2.6-3.4 2.4-5.4 2.6-6.1 2.3-3.9 1.2v-.8l3.1-2.3 5.8-5.7 3.4-4.3 3.5-5h.7l.4-1.5 3.9-6.1 3.8-7 .8-1.5h.7l.4-2.6 1.5-3.5 1.6-3.8 1.5-3.9 2.7-10 1.1-3 .8-4.2.8-2.7.4-3.5.4-13.4h-.8l-.4 3.8-.8 3.5-1.1 3-5 12.3-1.5.8-.8 2v2.2l-1.5 4.2-2.7 9.3-1.2 1.5-1.1 3.4-3.1 5.8-2 3.4-4.1 6.2-1.2 1.5h-.8l-.7 2L178 324l-6.9 5-5.7 3.4-5.4 2.7h-1.2l-2.3-5-1.9-6.9-1.1-6.5V305l.7-6.1 1.6-7 3-9.1 4.3-9.6 2.6-4.2 1.6-2.7-5.4 3-6.1 5-4.6 4.6-4.3 5.4-2.3 3.5-.3-.8.7-7.3 2-9.2 2.6-8 3.1-5.8 3.5-4.6 4.2-4.6 3.8-3.9 5.4-4.2 3.8-2.7 7.3-4.6 6.1-3.4 6.6-3.1 6.9-4.6 2.7-2.3 2.6-3.8-3.4 1.1-3 .4h-8.9l-2.3-.4v-.8l3.8-1.1 7.7-3 10.7-5 11.2-3.9 8-2 8-1 5.5-.5-2.3-2.3v-.7l-1.6-.8-3.4-3-3.9-2.4v-.3h8.5l6.1 1.1 8.8 3 8.9 4 8.4 4.1 4.2 2.7 3.5 2-2.7-8.1-2.7-4.2-4.2-3.9-1.2-1.1 8.5-.4h16l7.8 1.1 10 2.7 4.1 2 3.9 1.9 4.6 3-2-8.4-2.6-7z"/><path fill="#474a4a" d="m300.5 238.5 4.2.4 5.8 1.2 5 1.9 6.1 3.4 5 4.7 3.4 3.8 4.6 8 1.6 3.9 1.1 3.4.4 3.5.4-1.5v-13.9l-.8-6.1-1.1-8 1.9 1.5 3.5 4.2 2.6 3.8 3.1 5.8 2.3 6.9.8 7 4.6-5 3-3.2 5.4-3.8 4.6-2.7 6.2-2.3h1.9l-2.3 3.5-3 3.8-3.2 5.8-.7 2.7 1.1-.8h1.2v-.8l5-2.3 5.7-1.9 3.9-.8 4.2-.4h5.3l5.4.8 5.8 2 4.2 2.2 2.7 2v.3l-3-.3h-7.8l-6.5 1.5-4.6 2-3.8 2.2-3.9 3 5.4-.7 2.3-.4h7.7l7.3 2.3 6.1 3.5 2 1.5 2.6 1.6 4.2 3.4 3.9 3.8 4.6 6.6 4.6 8.8 1.1 2.3 2.3 6.1 2.3 7v2.2l-1.5.4-3.5-1.5-6.5-1.2 1.6 2.7v1.2h.7l2.3 6.1 1.6 6.5 1.1 6.2.4 4.2h-2l-1.8-1.2-6.2-1.1-10.7-1.2-.8-.3 1.2 1.9 1.9 1.9 2.7 2.7 1.5 2.3-.4.7-5 .4-3.8.8-4.6.8-5.8 2.3h-.7v.7l-2 1.2-1.9-.4-2.7-4.2-3.8-5-3.4-3.8-4.3-3.5-4.6-3.5-4.6-2.6-6.5-2.7-6.1-1.6-2-.7 2 1.9 5 4.2 5 3.8 5.7 5.4 3.5 3.9 4.2 6.1 3 6.1 2.3 6.2.8 3.8v8.8l-.8 3.1-.7-.4-1.6-3.8-2.3-4.2-3-3.9-4.3-3.4-2.3-1.6 3.1 5 2 5.8.7 4.6v5.7l-1.1 4.6-2 3.9-4.6 5.3-3.4 3.1-5 3-1.2.5-.3-7-.8-3.8-2-4.6-2.6-3.8-.8-.4v7l-.4 3-1.1-.4-2.3-4.2-4.2-5.4-3.1-3-4.2-3.5-5-5-3.5-5-2.3-4.6-.7-3v-3.9l8-2 1.6-.7-.8-3.8V354l1.5-2.3h2l2.2 3 1.2 2.8 1.5.7 2.3-.3 2.3-1.6 2-1.9 1.5-2.7.7-3V344l-1.1-3.4-1.5-2.7-1.6-2-5-3.7-5-2.3-5.3-1.6-6.2-1.1h-8l-6.2 1.5-3.4 1.5-2.3 2-2 3.8-.3 1.5v5.8l2.3 4.2 2.3 2 2 .3 4.1-3.5.8-.3h2.7l.8.3v2.4l-2.3 3.8-2.3 2-3.5.3 2.3 4.2 3.8 3.8 2.3 1.6-.3 3.4-3.5 3.9-5 3-8 2.7-5.4 1.2-6.5 1.1-6.6.8h-7.6l.4-2 2.6-3.4h-1.1l-6.5 2.3-5 1.6-6.2 2.6-8 3.9-6.2 3.4-5.3 3.9-2.3 1.5h-.8l-.8-2.3v-4.2l1.6-7 1.9-4.5 2.7-4.2 5.3-6.6 3.5-3-6.1 2.3-5.4 3-4.6 3.5-4.6 4.2-3.5 4.2-1.1.8v-5l.7-6.1 2.3-7 3.1-5 2.7-3.4 3.5-3.8 3.8-3.5 5-3.4 5.4-3 5.7-2h1.5v-.8l-3.8-1.1-3.4-1.2-3.1-.4v-.7l6.5-3.1 9.6-3 7.7-1.6 3-.4h12l6.8 1.2h1.6l-2.7-3.1-2.7-2.3.8-.4.7.4v.8l1.6-.4 1.5.4-1.1-1.2-4.7-1.5-5-1.6-2.6-.3h-12.7l-8 1.5-8.1 2.7-6.5 3-5 3.5-5 4.6-3 4.2 5.3.8-2 2-5.3 4.1-5.4 5.8-3.4 5.4-3.5 6.5h-1.1l-.8-.4v-.8l-1.9-.7-4.2-3.1-3.9-2.3.4-3 2-5.5 3-5.7 2.7-4.2 4.2-4.6 4.6-3.5 6.2-3.8 6.9-4.2.7-.4-10 1.1-4.2 1.2-5 1.9-6 3-2.8 1.2h-1.1v.8l-3.9 2.3h-1.5l.4-2 1.5-1.5h.8l.8-1.5 1.1-1.5h.8l.7-1.6 4.7-6.1 3.8-7 1.5-3 2-5 1.5-5 2.3-6.9.7-3.4 1.2-3.5 1.1-4.2h.8l.4-3.4 2.3-6.2 2.3-7.3 1.2-1.9 1.5.4v.8l2-1.6 1.4-.7.4-1.6.8.8 3-.8v-.7h2.7l1.2.3v1.2l6.9-3.8 8-3.9 3.1-1.1 5.8-.8 6.1-.4h7l8.4.4v1.2l3 .3 5 2 2.3 1.1v.8l2 .7 4.5 3.5 1.6 2 .4.7-.8-3.9-2.7-3.8-3-5-.8-.4V247l-1.6-.8-1.9-2.3-.7-.4v-.7l-1.6-.8-4.2-3z"/><path fill="#a92425" d="M213 97h19.6l10.7 1.1 10 2 5 1.1 6.1 1.5 5 1.6 6.2 1.9 4.6 1.5 4.6 2 10 3.8 6 2.3 6.2 2.3 7 2.3 6.8 2.3 5.8 1.5 3.4 1.2 8.9 2.3 9.6 1.9 5.3 1.1 9.2 1.6 12 1.1 10.3.8 12.7 1.1 12.6 2.3 8 2 2.8 1.1 5.3 2 7.3 3.8 4.6 3 5 4.3 3.5 3.8 3.4 5.4 2.3 5 1.2 3.4 1.1 7.7v9.2l-1.5 9.6-2.3 7.3-2 5-3 6-3.8 7.4-5.8 8.8-1.5-.8-1.6-1.9-3-2.7-.4-1.9 4.6-7.7 3-5.3 2-5-3.1.4-1.2.4v-4.7l-3 2.7-1.2 1.2H428l.4-1.2h.7v-.7h.8l.8-1.6 3.8-3.8 1.1-.8.4-3.8-3 2.7-8.9 8.8h-3.8l2.3-2.7 12.7-12.6h.7V187l-1.9 2-11.9 11.8-3 2.7-2 2.3h-.7l-.4 1.2-3.5-.4 2.3-2.7 20.4-20.3v-3.9l-7 7-1.9 1.9-3.4 3.8-2.7 2.7h-.8v.8l-1.9 1.9-9.2 9.2-3.4-.4v-.8l3-2.7 12.7-12.6.4-.8h.7l.8-1.5 2-1.5 1.8-2.4h.8v-.7l3-2.7 4.3-4.6h.8v-.8h.7v-4.2h-.7l-.8 1.5-21.5 21.5-2 2.3-2.6 2.3-2.7 3.1-3.4 3.5-2 1.5h-3.4l.4-1.2 1.9-1.9 2-1.9h.7v-.8l2.7-2.3 1.1-1.5h.8l.8-1.5h.7l.8-1.6 2.3-1.9.8-1.1h.7l.8-1.6h.8l.3-1.1h.8l.4-1.2 2.7-2.3 1.1-1.5h.8v-.8h.8l.7-1.5 6.2-6.2 1.9-1.5 2.7-3 2.7-2.7h.7v-2.7l2.3-2.3h.8l-1.5-2v-.7l-1.6.7-.4-1.9-5-3.4-3-2-3.8-1.9-5.4-1.9-3.5-1.1-8.8-2.3-6.1-1.2-3.5-.4v2.3l-19.6 19.6-.3.8 3.4-.4 2.3-2 2-1.9 4.2-4.2.3-.7h.8v-.8h.8l.7-1.5 1.6-1.6h.7l.8-1.5 2.3-2v4l-5 4.9-2.7 3-3.4 3.1-.4.8h-.8v.8h3.9l.7-1.6 4.6-4.2 2-2.3h.7l.4-.8v4.3l-4.2 4.2h3l1.2-.4v1.2l1.2-.4h3v.7h-.7v.8l-3.1 2.7-.4 3.8 3-2.7 2.8-3h.7v-.8l1.6-1.5h3.8v.7h-.8v.8l-3 2.7-6.2 6.5-1.1 1.2h-.8l.4 3.8 12.7-12.7 1.9-2.3h.7v-.7h3.5l-.8 1.5-4.6 5-13 13h-.8l.4 3.9 23.4-23.4h3.5l-.8 1.5-26.1 26v4l3-3.1 2-2 2.3-2.6 2.7-2.3 1.9-2 2.3-2.7h.8v-.7h.7v-.8h.8v-.8h.8v-.7h.7l.8-1.6 11.5-11.5h.8v-.7h3.8v.7l-3 2.7-31.9 31.9-.4 5.3-.4.4h-2.3v-.7l.8-.4H391l-3 2.3h-2.7v-.8l2-2H384l-3.8-8.7-3.8-6.2-3.1-3.8-3.8-3.5-4.3-3-5-3.1-2.2-.8-.8 10.8-.4 3.4-1.2-.4v-.7h-.7l.7-1.6.8-3v-1.6l-3.4 3.5-1.6-.8-.4-1.5 2.3-2 2-2.2h.7v-.8h.8v-4.2h-.8l-.7 1.5-3.1 3h-.8l-.7 1.6-2 2-1.5-.8-.8-.4.8-1.6 9.2-9.2.4-3.8h-.8l-.7 1.5-5 5-3 2.7-2.8 3-2.3-.3v-1.5l9.6-9.6 2-2 .3-.3 2.7-.4 3.5-3.5h.7l.8-1.5 18-18 .4-.8-3.5.4-1.5.7-.8 1.6-17.2 17.2h-.4v-3.8l10.4-10.3h.7l.8-1.6 3.8-3.8h.8v-.8h-3.5l-5.3 5.4h-.8v.8l-1.5 1.5h-.8v.8L360 153h-.8v.8h-.8v.7l-1.5.8v-3.5l8-8 .4-.8h.8v-.8h-3.4l-5.4 5.4h-.4v-3.8l2-2.3-7-1.2-13.8-3-6.9-1.6-8.8-2.7-5.4-1.5h-2.3L304 142.2l-1.6 1.6h-.7l-.8 1.5-21.5 21.5-.4.8 3.5-.4 1.1-.4.8-1.5 6.1-6.2h.8l.8-1.5 24.5-24.6h.4v3.9l-7.7 7.6h-.7v.8h-.8l-.8 1.6-20 19.9-.3.8h3.8l.8-1.6 1.5-.7.8-1.6h.8l.3-1.1h.8l.8-1.6 1.9-1.9h.8v-.7l1.9-1.6 2.7-3 13-13h.4v3.7l-22.6 22.7h3.4l3-2.7 2-2 5.8-5.7 2.6-3 4.3-4.3h.7v-.7h1.2v3l-3 3.1-2.8 3-3 2.8-6.6 6.5H301l1.1 3.4 2 5.4.3 3-5-.3-21.4-.4v-2.7l-2 1.2-1.9 1.9-4.2.4 2.3-2.7 2-2h.7l.8-1.5 1.5-1.5.4-6.9 34.1-34.1.4-.8h-3.4l-2 2.3-3 2.7-2.7 3-1.5 1.6h-.8v.7h-.8v.8l-1.9 2-4.2 4.2-1.6 1.5h-.7l-.8 1.5-1.5 1.6h-.8v.7l-3 2.7-3.5 3.8-1.5 1.6h-.8v-3.5l26-26 2.4-2.7-3.5.3-3.4 3.1-2 2-2.3 2.6-3 2.7-2.7 2.7-2 1.9-6.4 6.5-2 2-1.1.7v-3.8l8-8h.8v-.9l3-2.6 2.8-3.1 5-5 1.1-.8h-3.5l-3 2.7-13.4 13.4h-.8v-3.4l12.3-12.3h-3.5l-6.1 6.2-1.2 1.1h-.7l-.4 1.2h-.4v-3.9l1.9-2.3 2.7-2.3.4-.7-3.5.3-1.5 1.2V128H274l.4-1.2h.8v-.8h.7l.8-1.5h.8l-.4-3.8-2.7 3-3 2.7-1.6 1.6h-3.4l.7-1.6 3.9-3.4 1.9-2 2.3-2.6 1.1-.8.4-1.2h-3L262 128.1h-3.4l.8-1.6 10-10h.7v-.7h.8v-1.2h-3.1l-13.4 13.5H251v-.8h.8l.7-1.5 1.2-.4.8-1.6 10.3-10.3-1.5-.8-1.5.4-8.5 8.4h-.8l-.7 1.6-2 1.5-1.9 2h-.7l-.8 1.5h-3l.7-1.6 8.8-8.8 2-2 3.8-3.8.4-.7h-3.5l-4.2 4.2-2 2.3h-.7l-.8 1.5-2.3 2.3h-.7v.8l-2 2-1.1 1h-.8v.8h-.7l-.8 1.6h-1.1l-.4 2.3-2.7 3-19.2 19.2-2 2-4.1 4.2-2.7 3-5.8 5.8h3.5l11.9-12 1.9-2.2 3-2.7 1.6-2 1.5-1.4h.8v-.8l1.5-1.6h.8v-.7h.8l.7-1.6h.8l.8-1.5 2.6-2.3.4-.8h.8l.8-1.5 2.3-2v3.5l-.8 1.6-2 1.9-2.6 2.7h-.8l-.7 1.5h-.8l-.8 1.6-1.5 1.5h-.8v.8l-1.9 1.5-2 2-1.4 1.8-2.7 2.3-2 2.3-3 2.7-.8 1.2h-.8v.7L210 166l-.4.8h-.8v.8h4.2l.8-1.6 20-20 .3-.7h.8v-.8h.8v-.7l1.9-1.6h.4v3.9l-2.7 2.7h-.8l-.8 1.5-4.2 4.2-1.9 2-1.1 1h-.8v.9h-.8l-.7 1.5-1.6 1.5h-.7l-.8 1.6-1.5.7-.8 1.6-2 1.9h3.5l4.2-4.2h.8l.8-1.6 2.3-2.3h.7v-.7h.8l.8-1.6h.7l.8-1.5 3.9-3.8 1.5-2h.8v4.3l-5.8 5.3-7 7-.7 1h3.5l1.5-1.8h.8v-.8l3-2.7 1.6-1.9 1.9-2h1.2v3.5l-2.7 2.7h-.8l-.8 1.6-1.5 1.5h3l2.4-1.5v2.3h.7l-.3 3 1.1-1.1h.8v-.8l1.5-1.5h4.2v.7h2.3v-.7h5.4v.7l1.1.8h-.7v.8l3-2.7h3.9l.4 1.1h-.8l-.8 1.6-9.6 9.6h-3.4l-.8-.4v-1.2h-1.5l-.8 2-3 .3-4.6.4-5 .4-2.3.8v.7h-.8v-1.1l-2.7.7-4.6.8-3 1.5-4.3 1.2-.4 1.5 1.2.4v.8l1.5.8 2 1.5v2l-8.1 2.6-3.9 1.5-6.5 2.7-1.1-.4.4-.7h-.8l-.4 1.5h-.8v.8l-6.1 3-1.2-.4 1.2-1.1h.8l.7-1.5 5.8-5.8.4-3.4-3.1 2.6-7.3 7.3h-.8l-.3 1.2h-.8l-.8 1.5-2.7 2.7h-4.2l2-2 1.9-2.2 3-2.7 5.4-5.4h.8v-.7h.7l.8-1.6 1.5-.7.8-1.6 2.7-2.7h.8V183h-.8l-.8 1.5-4.2 4.3-1.5 1.5h-.8l-.8 1.5h-.7v.8h-.8l-.8 1.5-1.9 2-2.7 2.3-2.3 2.6h-.7l-.8 1.6-4.6 4.6h-3.9l.4-1.2 1.6-1.5h.7l.8-1.5h.8l.4-1.2h.7v-.8l2.7-2.3 2-2.3 1.8-1.9h.8v-.7l3-2.7 3.5-3.9h.8l.8-1.5 1.1-1.2h.8l.7-1.5 3.1-2.7.4-.7h.8v-3.9h-.8v.8l-2 1.5-.3 1.2-3 2.3-4.7 4.6h-.7v1.1l-2 1.6-.3.7h-.8v.8l-2.7 2.3-.4.8h-.7v.7h-.8v.8h-.8v.8l-3 2.7-.8 1.1h-.8v.8h-.8v.7h-.7v1.2l-2 1.1-.3.8h-.8l-.8 1.6h-.7v.7l-.8.4h-3.8l1.1-1.5h.8v-.8h.8l.7-1.5 3.1-3.1h.8v-.8h.7v-.7h.8l.4-1.2 1.1-1.1h.8v-.8h.8v-.8h.7v-.7h.8l.8-1.6 1.9-1.5 2.7-3h.7l.8-1.6 2-1.6 2.6-3 5.8-5.8h.7v-.7l3.1-2.7.4-.8.8-5.7 3-2.7 2-2 1.9-1.9 1.9-2.3 3-2.7 1.6-1.9h.7v-.7h.8l.8-1.6 1.9-1.9 2.7-2.7h.8v-.8l1.5-1.5h.8v-.8h.7l.8-1.5 8.4-8.4h.8v-.8h.8v-.8h.7l.8-1.5 1.2-.4v-.7l-3.9.3-31.8 31.9-.4.7h-.8v.8h-.7v-3.4l2.6-3.1h.8v-.8h.8v-.7h.7v-.8h.8l.8-1.5 3-2.7.8-1.2h.8v-.7h.7v-.8h.8v-.8h.8v-.8l1.9-1.9 10.4-10.3h.7v-.8h.8l.8-1.5 1.5-1.6h-3.5l-1.9 2-5.7 5.7-.4.8h-.8v.7l-1.9 1.6h-.8l-.7 1.5-2.7 3-3 2.8-7.8 7.6h-.7l.4-3.8 3.8-3.8 2-2 13.7-13.8 1.6-1.9H216l-2 2-1.8 2.2h-.8l-.8 1.6-5.3 5.3h-.8l-.4 1.2-2 2-1.4.7v.7h-.8l-.8 1.6h-.7v-3.5l1.5-1.9 2.3-1.9.4-.8h.7l.8-1.5 2-1.5.3-.8h.8v-.8h.7v-.7l1.6-1.6h.7v-.7h.8v-.8l1.5-1.5-3.4.3-5 4.6-2.7 3.1-3 2.3v-3.8l5.7-5.8h-3l-1.2.4v.8l-1.5.7v-2.6h-3.1v-.8l1.1-1.2h.8v-.7h.8V121h-.8v1.2h-.8v.8h-.7v.7h-.8l-.8 1.6-3 2.7h-3.5l1.2-2h.7v-.7h.8l.8-1.6h.7l.4-1.1 3-2.7 2.8-2.7.4-3.4h-1.2v.7h-.8l-.7 1.6h-.8v.7h-.8v.8h-.7v.8h-.8v.7l-3 2.7-1.6 2h-.8v.7h-.7v.8l-3.1 2.7H180l.8-1.6 12.7-12.6h.7v-.8h.8v-.8l1.5-1.5h.8v-.8h.8l.4-1.5-5 1.1-6.2 1.6-4.2 1.5-2.7.8-2.7 1.1-6.1 3-1.2.9H169v.7l-2 .4v.8l-1.8 1.1-4.6 3.1h-.8v.8h-.8v.7h-1.1l-.4 1.2-2.7 1.9-1.9 2-5 5-2.3 3-.4.7h-.7l-.8 1.6-3.8 5-2 2.7-1.5 3.8-3 6.5-.5 2.3 2.4-2.3h.7l.8-1.5 1.1-.4.4-1.2h.8l.8-1.5 15.7-15.7.4-.8h.7v-.8l2-1.1v3.8h-.8l-.8 1.6-1.9 1.9-1.5 1.5h-.8v.8h-.8l-.7 1.5-1.6.8v.8h-.7v.7h-.8v.8l-2 1.5-1 1.6h-.8v.7h-.8v.8h-.8l-.7 1.5-4.6 4.6h-.8l-.8 1.6-1.5 1.5h-.8v.8h-.8l-.7 1.5-1.2.4v.8l3.9-.4 4.2-4.3 2-1.9 14.9-15h.7l.4-1h.8l.4-1.2h.4v4.2l-3.1 2.7-10.4 10.3-1.9 2-2.7 2.6-.7 1.2h3l3-3 2-2 2-2 1.5-1.5h.7l.8-1.5 2-1.5 2.6-3 1.2-.5v3.9l-3.1 2.6-2.3 2.7-3 2.7-2.8 3 3.9.5.7-2 3.1-2.6 2-2 .7-1.1h.8v3.8h-.8l-.4 1.6-1.5.7-.8 1.2 4.2.4-.7 3.8h.7l.8-1.5 1.5-1.6h.8v-.7h3.8l-.7 1.5-4.3 4.2h-.7l-.8 1.6h-.8v4.2h.8l.8-1.6 5.3-5.3h.8l.8-1.6 2.7-2.3.3-.7h3.9v.7l-3 2.7-10 10-2 2-.4 3.8 3.1-2.7 12.7-12.7.4-.8h.7v-.7h.8l.8-1.6 1.1-.7h3.5v.7l-1.6 1.6h-.7l-.8 1.5-2.7 2.3-2.7 3-2.7 2.8-2.3 1.9-.4.7h-.7v.8h-.8l-.8 1.5-3.4 3.5-1.2 1.2h-.7v.7l-1.2.8v3.8l3.5-3.4h.7l.4-1.2h.8l.8-1.5 14.5-14.6 2-2 4.2-4.1h3.8v.7l-3 2.7-1.2.4-.8 1.5-1.5 1.6h-.8l-.7 1.5-3.5 3.5-1.1 1.1h-1.2l-.8 2-4.2 4.2h-.8l-.7 1.5h-.8l-.8 1.5h-.7v.8h-.8v.8l-2 1.9-2.6 2.7h-.8v.7h-.7l-.8 1.6h-.8l.4 3.8 3-3h.9l.7-1.6 12-11.9 1.8-2 1.6-1.5h.7l.8-1.5 10-10 1.9-2.3h.8v-.7h3.8l-.8 1.5-8.8 8.8-2 2-2.2 2.6-3 2.7-7.4 7.3-.4.8h-.7l-.8 1.5-3 2.7-8.9 8.8-.4 3-3 2.8-1.6 1.9h-.7v.8l-2.3 1.9-.4 1.1-2.3 1.6-5.8 5.7-.4.8h-.7l-.8 1.5h-.8v.8l-1.1.8.4 3 3-2.7L156 216l1.5-2h.8v-.7h.7v3.9h-.7v.7h-.8l-.8 1.6-1.9 1.5-1.9 2-3 3-2 2.3-1.5 1.5h-.8l-.8 1.6-.7 1.1-1.6.8-.3.7h-.8l1.1 2.7 2.7-2.3 5-5 2-1.9 4.2-4.2 1.1-1.2h.8v-.7h.7v3.4l-3 2.7-1.6 2.3-1.5 1.6h-.8v.7l-2.3 1.6-2.7 3-2.3 2 .4 2.6 1.6-.7 3.8-3.9 2-1.9 4.5-4.6 1.2-1.1h.7v3.4h-.7l-.4 1.2-3.9 3-.3.8h-.8v.8h-.8l-.7 1.5-2.3 2.7h-.8v1.1l-1.2 1.2-3.4 5.7-3.8 7.3-1.6-1.5-1.5-2.3-2.3-4.2-1.6-2.7-2.6-5.4-3.5-8-3-8.5-1.2-4.6-1.5-5.4-2-9.5-.7-9.6v-13.5l.4-5.3 1.5-8.9 2.3-7.6 3-7.7 3.1-6.1 2.3-4.3 3.9-5.7 4.2-5 2.7-3 5.7-5.8h.8v-.8l4.2-3.5 5.8-4.2 5.7-3.8 5.8-3 8-3.5 3.9-1.2 3.8-1.5 11.5-2.7 10.4-1.5z"/><path fill="#434849" d="M77.6 273.5h10L96 275l7 2.7 6 3 4.7 2.7 4.2 3.5.4 1.1 1.5.8 2.7 2.3v1.2l1.5.7 1.2 1.6 1.9 1.5 2 3.4 1.8 2 1.2 2.6-.4.8h.8v.8h1.1v.7l2.3.8 2 3 2.2 3.2.8 3.8 2.7 12.3 2.3 6.5.8 2.3-2.3-.8-6.6-3.4-1.9-1.2-5-1.9-4.6-2-1.5-8.4-2.7-6-3.8-6.2-4.6-5v-.8l-1.6-.8-2.7-2.3 1.6 2.3v1.6l1.1.4 2.3 5.7 1.2 4.6.8 7.3v4.2l-.8 1.6-7.3.4-6.1 1.1-7 2.3-5.7 3.5-3.8 3.4-5 5-.8 1.5 9.2-3.4 9.6-2.3 4.6-.4h9.2l9.6 1.5 8 2.3.4.8-7.6 3-3.9 2.8-4.2 4.2-1.5 2.7 4.6-2 8-2.3 9.3-1.5 3.4-.4h30l6.8 1.2 7.7 2.3 3 1.1v.4l-7.2.8-4.6 1.9-2.7 1.5 10.4 1.2 8.8 1.5 6.5 2 5.8 3 6 5 4.3 4.6 3.9 5.7 3.8 8.1.4 1.2v6.5l-1.6 3.8-1.5 2.3-2.7 2.7h-.8l-1.9-8.8-3-6.2-3.5-3.8-3.8-3-6.2-3.1-.7-.4 3.8 5 3.5 6.5 1.1 3 .8 4.7v6.5l-1.6 3.4-1.5 2-3.8 1.5-2 .4h-8.4l-3.4-.8-.8-.4-.4-8.8-2-6.1-4.1-5.4-4.6-3.5-2.7-1.1 2.7 4.6 2.3 6.1v2.7l-3.5.8-.4.4h-13.4l-6.1-1.2-7.7-2.7-2-1.1-3.8-1.6-4.2-2.3-3.4-2.3-1.6-1.5-3.4-2.3-2-2-2.2-1.8-3.1-3.9-1.5-1.9v-.8h-.8v7l1.1 6 .4 1.2-8.8-.7-8-1.2-6.2-1.5-3.8-1.6-3.5-1.1-6.1-2.3-2.3-1.2v-.7L76 380l-4.3-2.7-2.3-1.9-3.4-4.2-.4-.4v10L67 385v2.7H66l-.8-1.2-2.7-1.5-1.9-2v-.7l-1.1-.4-1.6-1.9v-.8h-.7l-1.6-2.6-1.1-1.6-2-5-.7-3.4v-10.4l.4-5.7-.8 1.1h-.8v.8l-2.6 2.3h-.8l-.8 1.5h-.7L45 358l-3 3.4-2.4 3.8-1.5 3.9h-.8l-2.3-5.4L34 358l-.4-3.1v-7.3l.8-5.4.7-2.7 1.2-3.8h.7v-1.1l-4.2 3.4-3 2.7-1.2 1.1h-.8l-.7 2-1.2.7v-1.9l-3 2.7-6.2 6.5-2.3 3-1.1 1.2.7-6.5 2.3-6.9 3.9-8.4 5-8.5 3.4-4.2 3.8-4.2 2.7-3 4.6-4.3 4.6-3.5 5.4-3.4 2.7-1.5h1.1v-.8l-1.9-.4-4.2-1.5-4.6-1.2-2.7-.4-7.7-.3 1.2-2 3.8-3.4 3.9-3 7.2-5 6.6-4 4.6-1.8 6.9-2.3 6.1-1.6zm54.9 31"/><path fill="#c43536" d="m366.5 133 8.4.4 10.4.8 12.7 1.1 12.6 2.3 8 2 2.8 1.1 5.3 2 7.3 3.8 4.6 3 5 4.3 3.5 3.8 3.4 5.4 2.3 5 1.2 3.4 1.1 7.7v9.2l-1.5 9.6-2.3 7.3-2 5-3 6-3.8 7.4-5.8 8.8-1.5-.8-1.6-1.9-3-2.7-.4-1.9 4.6-7.7 3-5.3 2-5-3.1.4-1.2.4v-4.7l-3 2.7-1.2 1.2H428l.4-1.2h.7v-.7h.8l.8-1.6 3.8-3.8 1.1-.8.4-3.8-3 2.7-8.9 8.8h-3.8l2.3-2.7 12.7-12.6h.7V187l-1.9 2-11.9 11.8-3 2.7-2 2.3h-.7l-.4 1.2-3.5-.4 2.3-2.7 20.4-20.3v-3.9l-7 7-1.9 1.9-3.4 3.8-2.7 2.7h-.8v.8l-1.9 1.9-9.2 9.2-3.4-.4v-.8l3-2.7 12.7-12.6.4-.8h.7l.8-1.5 2-1.5 1.8-2.4h.8v-.7l3-2.7 4.3-4.6h.8v-.8h.7v-4.2h-.7l-.8 1.5-21.5 21.5-2 2.3-2.6 2.3-2.7 3.1-3.4 3.5-2 1.5h-3.4l.4-1.2 1.9-1.9 2-1.9h.7v-.8l2.7-2.3 1.1-1.5h.8l.8-1.5h.7l.8-1.6 2.3-1.9.8-1.1h.7l.8-1.6h.8l.3-1.1h.8l.4-1.2 2.7-2.3 1.1-1.5h.8v-.8h.8l.7-1.5 6.2-6.2 1.9-1.5 2.7-3 2.7-2.7h.7v-2.7l2.3-2.3h.8l-1.5-2v-.7l-1.6.7-.4-1.9-5-3.4-3-2-3.8-1.9-5.4-1.9-3.5-1.1-8.8-2.3-6.1-1.2-3.5-.4v2.3l-19.6 19.6-.3.8 3.4-.4 2.3-2 2-1.9 4.2-4.2.3-.7h.8v-.8h.8l.7-1.5 1.6-1.6h.7l.8-1.5 2.3-2v4l-5 4.9-2.7 3-3.4 3.1-.4.8h-.8v.8h3.9l.7-1.6 4.6-4.2 2-2.3h.7l.4-.8v4.3l-4.2 4.2h3l1.2-.4v1.2l1.2-.4h3v.7h-.7v.8l-3.1 2.7-.4 3.8 3-2.7 2.8-3h.7v-.8l1.6-1.5h3.8v.7h-.8v.8l-3 2.7-6.2 6.5-1.1 1.2h-.8l.4 3.8 12.7-12.7 1.9-2.3h.7v-.7h3.5l-.8 1.5-4.6 5-13 13h-.8l.4 3.9 23.4-23.4h3.5l-.8 1.5-26.1 26v4l3-3.1 2-2 2.3-2.6 2.7-2.3 1.9-2 2.3-2.7h.8v-.7h.7v-.8h.8v-.8h.8v-.7h.7l.8-1.6 11.5-11.5h.8v-.7h3.8v.7l-3 2.7-31.9 31.9-.4 5.3-.4.4h-2.3v-.7l.8-.4H391l-3 2.3h-2.7v-.8l2-2H384l-3.8-8.7-3.8-6.2-3.1-3.8-3.8-3.5-4.3-3-5-3.1-2.2-.8-.8 10.8-.4 3.4-1.2-.4v-.7h-.7l.7-1.6.8-3v-1.6l-3.4 3.5-1.6-.8-.4-1.5 2.3-2 2-2.2h.7v-.8h.8v-4.2h-.8l-.7 1.5-3.1 3h-.8l-.7 1.6-2 2-1.5-.8-.8-.4.8-1.6 9.2-9.2.4-3.8h-.8l-.7 1.5-5 5-3 2.7-2.8 3-2.3-.3v-1.5l9.6-9.6 2-2 .3-.3 2.7-.4 3.5-3.5h.7l.8-1.5 18-18 .4-.8-3.5.4-1.5.7-.8 1.6-17.2 17.2h-.4v-3.8l10.4-10.3h.7l.8-1.6 3.8-3.8h.8v-.8h-3.5l-5.3 5.4h-.8v.8l-1.5 1.5h-.8v.8L360 153h-.8v.8h-.8v.7l-1.5.8v-3.5l8-8 .4-.8h.8v-.8l-3.8-.3-.8-.4.4-2 2.3-3 1.1-2 1.2-.3z"/><path fill="#151c1c" d="m300.5 238.5 4.2.4 5.8 1.2 5 1.9 6.1 3.4 5 4.7 3.4 3.8 4.6 8 1.6 3.9 1.1 3.4.4 3.5.4-1.5v-13.9l-.8-6.1-1.1-8 1.9 1.5 3.5 4.2 2.6 3.8 3.1 5.8 2.3 6.9.8 7 4.6-5 3-3.2 5.4-3.8 4.6-2.7 6.2-2.3h1.9l-2.3 3.5-3 3.8-3.2 5.8-.7 2.7 1.1-.8h1.2v-.8l5-2.3 5.7-1.9 3.9-.8 4.2-.4h5.3l5.4.8 5.8 2 4.2 2.2 2.7 2v.3l-3-.3h-7.8l-6.5 1.5-4.6 2-3.8 2.2-3.9 3 5.4-.7 2.3-.4h7.7l7.3 2.3 6.1 3.5 2 1.5 2.6 1.6 4.2 3.4 3.9 3.8 4.6 6.6 4.6 8.8.4 1.5-1.6-.7-2.7-2.7-5-3.1-6-3-8.1-3.1-10-2.3v-.8l2.3-1.2 5-1.1h2.3v-1.2l-2.3-.3-3.5-1.6-5-1.5-3-.4h-7l-6 1.5-3.5 2-5.8 3.8-3.4 2.7-4.6 4.6-3.5 4.2-3.4 4.2-2.7 4.2-2 2.7h-.7v.8l-1.6-.8-1.1-.7v-.8h-.8l-3-4.2-1.6-4.2v-4.3l-2.7 1.6-3 2.3-2 1.1-2.3 1.6-1.1-7.3-1.2-2.7v-2h-.7l-.4 2.4-2.7 3.8h-.8v.8l-1.9 1.1-.4.4h-5.3l.7-4.2.8-5v-10.7l-1.5-6.6-2-4.2-3-5.4-2.3-3.8-3.5-3.8-.7-.4v-.8l-1.6-.8-2.7-1.1v-.8h-.7v.8l-1.2-.4-.7-1.5-6.2-2.3-5-1.2-.7-.4v.8l1.5.8 2.3 1.9 3 4.2.8.4.4 3-1.9-.7-5-3.5-4.2-2.3-5-1.9-3-.4H272l-6.5 1.2-2.7.4v.7l3.8.4 4.3 1.6 2.6.3v1.2l-1.1.4-5.4.4-2.3.7-2.7.4-7.3 1.2-.3.4-4.3.3 1.6-2.7h.7l.8-1.5 1.2-1.1h.7v-.8l-3.4.4-2 .4v-.8l5.4-3 5.4-3.1 8-3.9 3.1-1.1 5.8-.8 6.1-.4h7l8.4.4v1.2l3 .3 5 2 2.3 1.1v.8l2 .7 4.5 3.5 1.6 2 .4.7-.8-3.9-2.7-3.8-3-5-.8-.4V247l-1.6-.8-1.9-2.3-.7-.4v-.7l-1.6-.8-4.2-3z"/><path fill="#545551" d="M281 326h11.8l7 1.2 3 1.1 1.5 2 2.7.7 2 1.5 1.5-1.5-.8 2-1.5 3-.4 1.5v5.8l2.3 4.2 2.3 2 2 .3 4.1-3.5.8-.3h2.7l.8.3v2.4l-2.3 3.8-2.3 2-3.5.3 2.3 4.2 3.8 3.8 2.3 1.6-.3 3.4-3.5 3.9-5 3-8 2.7-5.4 1.2-6.5 1.1-6.6.8h-7.6l.4-2 2.6-3.4h-1.1l-6.5 2.3-5 1.6-6.2 2.6-8 3.9-6.2 3.4-5.3 3.9-2.3 1.5h-.8l-.8-2.3v-4.2l1.6-7 1.9-4.5 2.7-4.2 5.3-6.6 3.5-3-6.1 2.3-5.4 3-4.6 3.5-4.6 4.2-3.5 4.2-1.1.8v-5l.7-6.1 2.3-7 3.1-5 2.7-3.4 3.5-3.8 3.8-3.5 5-3.4 5.4-3 5.7-2h1.5v-.8l-3.8-1.1-3.4-1.2-3.1-.4v-.7l6.5-3.1 9.6-3 7.7-1.6z"/><path fill="#1a1410" d="M196.2 108.5h2.3l-.4 1.5h-.8v.8h-.8l-.7 1.5h-.8v.8h-.8v.8l-3 2.6-10.8 10.8-.4.8 3.5-.4 1.5-.8.8-1.5h.8v-.8h.7v-.8h.8l.8-1.5 1.5-1.5h.8l.7-1.6h.8v-.7h.8v-.8h.7v-.8h.8v-.7l1.5-1.6h.8v-.7h1.2v3.4l-4.3 4.2h-.7l-.4 1.2-2.3 1.9-.4.8h-.8v.7h-.7l-.8 1.6h3l3.5-3.1.4-.8h.8v-.7h.7v-.8h.8v-1.2h.8v4.3h-.8v.7h-.8l-.3 1.2h-.8v.8h3l.4 2.3 1.2-.4v-.8l1.1-.8h3.5l-2.3 2.7-3.5 3.5v3.4l2-1.9h.7l.8-1.5 5-5 1.9-1.5h3.4l-.7 1.5h-.8v.8h-.8v.7h-.7l-.8 1.6h-.8v.7h-.7v.8h-.8l-.4 1.1h-.7l-.4 1.2-1.6 1.5h-.7l-.8 1.6-2.3 1.9-.8 1.1-.3 3.5 1.5-1.6h.8v-.7l1.9-1.6 1.9-2.3 3-2.6 3.5-3.5 2.7-3 1.5-.8.8-1.6h3.8l-2.3 3.1-14.2 14.2h-.7l-.8 1.5-3 3.1-.8 3.8 3-2.6 7.7-7.7h.8l.7-1.6 2.7-3 2-1.6h.7v-.7h.8l.8-1.6 5-5 1.9-1.9.3-.3h3.9l-2.3 2.6-.4.8h-.8v.8l-3 2.7-8.5 8.4-.8 1.1h-.7v.8h-.8v.8h-.8v.8h-.7v.7h-.8l-.8 1.6-1.5.7-.8 1.6-1.5 1.5h-.8v.8h-.7v.7h-.8v.8h-.8l-.7 1.5-1.6 1.6-.3 3.4h.7v-.8h.8l.8-1.5 31.4-31.4h3.9v.7l-2 2h-.7v.7h-.8v.8l-3 2.7-6.6 6.5-.4.7h-.7v.8h-.8l-.8 1.5h-.7v.8l-3.1 2.7-1.6 2-1.5 1.5h-.8v.7h-.7l-.8 1.6-3 3h-.8l-.8 1.6-1.5 1.5h-.8l-.8 1.5h-.7l-.8 1.6-2.7 2.7h-.7l-.4 5.7-2 2.3h-.7l-.4 1.2h-.8v.7l-3 2.7-5.4 5.4-2 1.9-1.5 2-2.6 2.2-2 2.3-1.5 1.6h-.8v.7h-.7v.8h-.8v.8h-.8l-.4 1.1-1.1 1.2h-.8v.7h-.7v.8l-3.1 2.7-1.5 1.9h-.8v.8h-.8l-.4 1.1h-.7v.8h-.8l-.4-1.5-.7.3-1.6 3.9-2.7 3.4-1.9 2-3.4 2.6-.4-1.1 1.9-2h.8v-.7h.7l.8-1.5 1.5-1.6h.8l.8-1.5h.7v-3l10-10h.8l.7-1.6 1.6-1.5h.7l.8-1.6 9.2-9.2h.8l.8-1.5h.7l.8-1.5 1.5-.8.8-1.5 8.8-8.9.4-.7h-3.8v.7h-.8l-.8 1.6h-.7l-.8 1.5-10 10-1.9 1.9-1.5 1.5h-.8l-.8 1.6-11.9 11.9-1.9 1.9-2.7 2.3v-4.2l1.6-1.6h.7v-.7l3.1-2.7 1.5-2h.8v-.7h.8v-.8l2.7-2.3 1.9-1.9 3.4-3.5.8-1.5h1.2l.3-1.1 3.1-2.7 2-2.3 2.6-2.3 2-2 1.8-1.9h.8v-.7l-3.8.4-5 5h-.8l-.7 1.5L165 189l-1.6 1.9-3 2.7-1.6 1.1v-4.2l1.6-.8v-.7h.7l.4-1.2 3-2.7 2-2.3h.8v-.8h.7l.4-1.1 3.1-2.7 3.8-3.8 2-2 2.3-2.6h.7l.8-1.6h.8v-.7l-3.5.4-2 1.9h-.7v.7h-.7l-.8 1.6-14.6 14.6h-.8v-3.9l1.6-1.9 3-2.7 10-10h.8v-.7h-3.9l-.7 1.5-2.7 2.3-2 2-5 5-.3.7h-.8v-4.2l3.1-2.7 3.8-3.9.4-.7h-3.8v.7l-2.7 2.3-.4.8h-.7l.7-3.8h-4.6l1.6-2.3h1.1l.4-1.6h.8V160h-.8l-.8 1.5-1.1.4-.8 1.5-1.5.8-.8 1.6-1.2 1.1-.3.8H147l1.6-2.3 3.8-3.9h.8l.7-1.5 3.1-2.7.8-1.1h.8v-3.9l-3.1 2.7-2 2.3-3 2.7-1.5 1.5h-.8l-.8 2-4.6 4.2h-3.4l1.5-2.3 3-3.1h.8l.8-1.5 11.1-11.2h.8l.4-1.1h.8l-.4-3.9-1.6 2-3 2.7-13 13-2 2-3.8 3.8h-3.9v-.8l2-2h.7v-.7l2.7-2.3 2-2 4.1-4.1.4-.8h.8v-.8h.8v-.7l1.9-2 1.1-1.1h.8v-.8h.8v-.7h.7v-.8l2-1.5.3-.8h.8v-.8l2-1.5 1.8-2 1.2-1.5h.8l-.4-3.4-1.6.7v.8h-.7l-.8 1.5-15.7 15.8-1.6 1.9-3 2.7-2.3 1.9.3-2.7 4.3-8.8 1.1-2.7 3.9-5 2.3-3h.7l.8-2 4.6-5 3-3h.8l.8-1.6 2.3-1.5.4-.8h1.1v-.7h.8v-.8l5.4-3.5.7-.7h1.2v-.8l2-.4v-.7l2.6-1.2 6.1-3 2.7-1.2 7-2.3 4.5-1.2zm-33.8 96.7"/><path fill="#7d1818" d="M213.4 106.2h20.3v.8h6.6v.7h3.8l3 1.2 4.7.4 1.5.3 5 .4 1.2.8v1.1l3.8-.3 1.5.7-1.5.4-1.5.4-8.5 8.4h-.8l-.7 1.6-2 1.5-1.9 2h-.7l-.8 1.5h-3l.7-1.6 8.8-8.8 2-2 3.8-3.8.4-.7h-3.5l-4.2 4.2-2 2.3h-.7l-.8 1.5-2.3 2.3h-.7v.8l-2 2-1.1 1h-.8v.8h-.7l-.8 1.6h-1.1l-.4 2.3-2.7 3-19.2 19.2-2 2-4.1 4.2-2.7 3-5.8 5.8h3.5l11.9-12 1.9-2.2 3-2.7 1.6-2 1.5-1.4h.8v-.8l1.5-1.6h.8v-.7h.8l.7-1.6h.8l.8-1.5 2.6-2.3.4-.8h.8l.8-1.5 2.3-2v3.5l-.8 1.6-2 1.9-2.6 2.7h-.8l-.7 1.5h-.8l-.8 1.6-1.5 1.5h-.8v.8l-1.9 1.5-2 2-1.4 1.8-2.7 2.3-2 2.3-3 2.7-.8 1.2h-.8v.7L210 166l-.4.8h-.8v.8h4.2l.8-1.6 20-20 .3-.7h.8v-.8h.8v-.7l1.9-1.6h.4v3.9l-2.7 2.7h-.8l-.8 1.5-4.2 4.2-1.9 2-1.1 1h-.8v.9h-.8l-.7 1.5-1.6 1.5h-.7l-.8 1.6-1.5.7-.8 1.6-2 1.9h3.5l4.2-4.2h.8l.8-1.6 2.3-2.3h.7v-.7h.8l.8-1.6h.7l.8-1.5 3.9-3.8 1.5-2h.8v4.3l-5.8 5.3-7 7-.7 1h3.5l1.5-1.8h.8v-.8l3-2.7 1.6-1.9 1.9-2h1.2v3.5l-2.7 2.7h-.8l-.8 1.6-1.5 1.5h3l2.4-1.5v2.3h.7l-.3 3 1.1-1.1h.8v-.8l1.5-1.5h4.2v.7h2.3v-.7h5.4v.7l1.1.8h-.7v.8l3-2.7h3.9l.4 1.1h-.8l-.8 1.6-9.6 9.6h-3.4l-.8-.4v-1.2h-1.5l-.8 2-3 .3-4.6.4-5 .4-2.3.8v.7h-.8v-1.1l-2.7.7-4.6.8-3 1.5-4.3 1.2-.4 1.5 1.2.4v.8l1.5.8 2 1.5v2l-8.1 2.6-3.9 1.5-6.5 2.7-1.1-.4.4-.7h-.8l-.4 1.5h-.8v.8l-6.1 3-1.2-.4 1.2-1.1h.8l.7-1.5 5.8-5.8.4-3.4-3.1 2.6-7.3 7.3h-.8l-.3 1.2h-.8l-.8 1.5-2.7 2.7h-4.2l2-2 1.9-2.2 3-2.7 5.4-5.4h.8v-.7h.7l.8-1.6 1.5-.7.8-1.6 2.7-2.7h.8V183h-.8l-.8 1.5-4.2 4.3-1.5 1.5h-.8l-.8 1.5h-.7v.8h-.8l-.8 1.5-1.9 2-2.7 2.3-2.3 2.6h-.7l-.8 1.6-4.6 4.6h-3.9l.4-1.2 1.6-1.5h.7l.8-1.5h.8l.4-1.2h.7v-.8l2.7-2.3 2-2.3 1.8-1.9h.8v-.7l3-2.7 3.5-3.9h.8l.8-1.5 1.1-1.2h.8l.7-1.5 3.1-2.7.4-.7h.8v-3.9h-.8v.8l-2 1.5-.3 1.2-3 2.3-4.7 4.6h-.7v1.1l-2 1.6-.3.7h-.8v.8l-2.7 2.3-.4.8h-.7v.7h-.8v.8h-.8v.8l-3 2.7-.8 1.1h-.8v.8h-.8v.7h-.7v1.2l-2 1.1-.3.8h-.8l-.8 1.6h-.7v.7l-.8.4h-3.8l1.1-1.5h.8v-.8h.8l.7-1.5 3.1-3.1h.8v-.8h.7v-.7h.8l.4-1.2 1.1-1.1h.8v-.8h.8v-.8h.7v-.7h.8l.8-1.6 1.9-1.5 2.7-3h.7l.8-1.6 2-1.6 2.6-3 5.8-5.8h.7v-.7l3.1-2.7.4-.8.8-5.7 3-2.7 2-2 1.9-1.9 1.9-2.3 3-2.7 1.6-1.9h.7v-.7h.8l.8-1.6 1.9-1.9 2.7-2.7h.8v-.8l1.5-1.5h.8v-.8h.7l.8-1.5 8.4-8.4h.8v-.8h.8v-.8h.7l.8-1.5 1.2-.4v-.7l-3.9.3-31.8 31.9-.4.7h-.8v.8h-.7v-3.4l2.6-3.1h.8v-.8h.8v-.7h.7v-.8h.8l.8-1.5 3-2.7.8-1.2h.8v-.7h.7v-.8h.8v-.8h.8v-.8l1.9-1.9 10.4-10.3h.7v-.8h.8l.8-1.5 1.5-1.6h-3.5l-1.9 2-5.7 5.7-.4.8h-.8v.7l-1.9 1.6h-.8l-.7 1.5-2.7 3-3 2.8-7.8 7.6h-.7l.4-3.8 3.8-3.8 2-2 13.7-13.8 1.6-1.9H216l-2 2-1.8 2.2h-.8l-.8 1.6-5.3 5.3h-.8l-.4 1.2-2 2-1.4.7v.7h-.8l-.8 1.6h-.7v-3.5l1.5-1.9 2.3-1.9.4-.8h.7l.8-1.5 2-1.5.3-.8h.8v-.8h.7v-.7l1.6-1.6h.7v-.7h.8v-.8l1.5-1.5-3.4.3-5 4.6-2.7 3.1-3 2.3v-3.8l5.7-5.8h-3l-1.2.4v.8l-1.5.7v-2.6h-3.1v-.8l1.1-1.2h.8v-.7h.8V121h-.8v1.2h-.8v.8h-.7v.7h-.8l-.8 1.6-3 2.7h-3.5l1.2-2h.7v-.7h.8l.8-1.6h.7l.4-1.1 3-2.7 2.8-2.7.4-3.4h-1.2v.7h-.8l-.7 1.6h-.8v.7h-.8v.8h-.7v.8h-.8v.7l-3 2.7-1.6 2h-.8v.7h-.7v.8l-3.1 2.7H180l.8-1.6 12.7-12.6h.7v-.8h.8v-.8l1.5-1.5h.8v-.8h.8l.4-1.5h-2v-.4l10.8-1.5z"/><path fill="#333736" d="M36.2 334.5h.7v1.1h-.7l-.4 2.3-.8 3.8-.4.4-.7 5.4v7.3l1.1 6.9 1.2 3.8 1.1 3.5h.8l.4-2.3 3.4-5.8 3.5-3.8 1.9-2.3 2.7-2.3h.7v-.8h.8l.8-1.5h.4l-.4 6.1v10.4l1.5 5.7 2 3.9 1.5 1.9v1.1h.7l2 2.7 2.6 2.3v.8l1.6.8L66 387v.8h.8l-1.2-5.4-.4-1.5V370l1.6 1.6 1.5 1.9v.8l1.1.3 2 2 3.8 2.6 3 1.6v.7l2.4.8 6.1 2.3 3.8 1.5 6.2 2 5.4 1.1L116 391l1.1.3-.7-1.1-1.2-6.2v-6l.4-.9h.8l1.5 2.3 3 3.5 2 2 1.5 1.4v.8l2.3.8 3.5 2.7 1.1 1.1 2.3 1.6 6.5 3.4 2 .8 4.6 1.9 4.6 1.5 6.1 1.2h13.4l1.6-.8h2.3l.4-1.1.3 1.5v7.3l-1.9 4.6-1.9 1.5-3 .8h-4.7l-9.2-1.5-6.5-2-3.8-1.5-8.1-3-1.1-.8-2-.4v-.8l-1.9-.4-4.6-2.3-2.3-.7v-.8l-3.4-.8-3.1-1.5-7-2.3v.8l2 .7 5 3.9 3 3-1.1.4-15-.4-5-.7-6-1.6-7.8-1.9-3-1.1-7.7-3.1-5.4-3.5-5.3-3.8v2l1.1.7-.4.8.4 1.1 1.2 3 2.3 4.3v1.1H58.4l-7.3-1.1-8-2.7-5.8-3.4-3-2.3-5-5-3.5-5.8-2-4.6-1.4-6.1v-14.2l1.1-8.5 2-5.7.7.7 1.5-2.3 1.6-.3.7-1.6 3.9-3.4z"/><path fill="#1b1511" d="m255.6 110.8 3.5.4-.8 1.5-4.2 4.2h-.8l-.8 1.6-8.8 8.8-.4.8 3.1-.4 2-2 1-.3.8-1.6 2-1.5 1.9-2 8-8 2.7.4v1.2l-10.7 10.7-2.3 2.7h-.8v.8l3.5-.4 13.4-13.5 3 .4v1.2h-.7v.7l-3 2.7-8.1 8-.4.9 3.4-.4 11.5-11.5 3.1.3-.4 1.6-2.3 1.9-1.1 1.5h-.8l-.8 1.6-3 3-2 2 3.5-.4 3.8-3.9h.8l.8-1.5 2.3-2v4.3l-1.6 1.5h-.7v.8l-1.2 1.2h3.5l.4 1.1 1.1-1.1h3.5l-.8 1.5-1.5 1.5h-.8l-.8 1.6-.7.7v3.5l.4-.8h.7l.4-1.1 3-2.7 4-3.9h3.7l-2.3 2.7-10 10-.3 3.4 3-2.6 13.5-13.5.7-.3h3.9l-2 1.9-6.5 6.5-2.6 3-1.2.4v.8l-3 2.7-5.4 5.4v3.4l1.5-1.5h.8l.7-1.5 7-7h.7l.8-1.5 4.6-4.6h.7l.8-1.5 2.3-2.3h.8l.8-1.6 3-2.6h3.5l-.8 1.5-1.1.4-.8 1.5-25.3 25.3-.4 3.5 3-2.7 1.2-1.5h.8l.7-1.6 2.3-2.3h.8v-.7l2.7-2.3.4-.8h.7l.8-1.5 3-2.7 3.2-3.5h.7v-.8h.8v-.7l3-2.7 2.4-2.7h.7l.8-1.5 2.3-2 .8-1.1 3.4.4-.8 1.5-33.3 33.4-.4 7-2 1.8-1.9 2-3.8 3.8-.8-1.6-2.6 2.3-3.5.4-1.1-.7 3.8-.4 10.7-10.8.4-.7-3.4.4-11.2 11-1.5-.3-2 1.1-3 .4-.8-.7 3.1-.4 10.8-10.8.3-.7h-3.8v.7h-.8l-.3 1.2h-.8v.8h-.8l-.7 1.5-6.6 6.5-1.1.8-3.5.7-2.7.4-1.1-.7 3.4-.4 10-10 .4-.8h.8l-.4-.7h-3.8l-2.4 2.3h-.7v-.8l-1.2-.8h.8v-.7h-5.4v.7H246v-.7h-4.2l-.8 1.5h-.7v.8l-2.3 1.5.4-2.7.3-.7h-.7l-.4-2-2 1.6h-3.4l2.3-2.7 2-2 1.5-1.5.4-3.4h-1.2l-.8 1.5-1.9 1.5-2.7 3.1-1.1.4v.8l-2 1.9-.3.4h-3.9l1.6-2.3 10-10 1.9-1.5.4-4.3h-.8l-.4 1.2h-.8l-.7 1.5-3.9 3.9-1.9 2.3h-.8v.7l-3 2.7-2 2-3.8 3.8h-3.8l2.3-2.7 1.9-2 2-1.9 2.2-2.6h.8v-.8l2.3-2 2-1.8 4.1-4.3 2-1.9 1.5-1.5v-3.5h-.8l-.4 1.2h-.7v.7h-.8v.8h-.8l-.7 1.6-20 19.9-.4.8h-4.2v-.8h.8l.7-1.5 1.6-1.6h.7v-.7h.8l.8-1.6 1.5-.7.8-1.6h.8l.7-1.5h.8l.8-1.5h.7l.8-1.6h.8l.7-1.5 1.6-1.5h.7l.8-1.6 1.5-.7v-.8h.8l.8-1.5 2.6-2.4 2-1.9 3-3.4h.8l.4-1.6v-3l-2.7 3h-.8l-.7 1.6-2.7 2.3-2 2.3h-.7v.7h-.8l-.7 1.6h-.8v.8h-.8l-.7 1.5-2 1.9-2.6 2.7h-.8l-.8 1.5h-.7l-.8 1.6-11.5 11.5h-4.2l1.9-2 5-5 1.1-1.5h.8l.7-1.5 4.6-4.6h.8l.8-1.5 20.7-20.8 1.2-3 1.5-.8.4-.8h.7v-.7l2-1.6 1.1-1.5h.8v-.8l3-2.7.8-1.1h.8l.7-1.5h.8l.8-1.6zm14.2 66 .4.7z"/><path fill="#791615" d="M158.2 136.5h.4v3.8h-.8l-.8 1.6-1.9 1.9-1.5 1.5h-.8v.8h-.8l-.7 1.5-1.6.8v.8h-.7v.7h-.8v.8l-2 1.5-1 1.6h-.8v.7h-.8v.8h-.8l-.7 1.5-4.6 4.6h-.8l-.8 1.6-1.5 1.5h-.8v.8h-.8l-.7 1.5-1.2.4v.8l3.9-.4 4.2-4.3 2-1.9 14.9-15h.7l.4-1h.8l.4-1.2h.4v4.2l-3.1 2.7-10.4 10.3-1.9 2-2.7 2.6-.7 1.2h3l3-3 2-2 2-2 1.5-1.5h.7l.8-1.5 2-1.5 2.6-3 1.2-.5v3.9l-3.1 2.6-2.3 2.7-3 2.7-2.8 3 3.9.5.7-2 3.1-2.6 2-2 .7-1.1h.8v3.8h-.8l-.4 1.6-1.5.7-.8 1.2 4.2.4-.7 3.8h.7l.8-1.5 1.5-1.6h.8v-.7h3.8l-.7 1.5-4.3 4.2h-.7l-.8 1.6h-.8v4.2h.8l.8-1.6 5.3-5.3h.8l.8-1.6 2.7-2.3.3-.7h3.9v.7l-3 2.7-10 10-2 2-.4 3.8 3.1-2.7 12.7-12.7.4-.8h.7v-.7h.8l.8-1.6 1.1-.7h3.5v.7l-1.6 1.6h-.7l-.8 1.5-2.7 2.3-2.7 3-2.7 2.8-2.3 1.9-.4.7h-.7v.8h-.8l-.8 1.5-3.4 3.5-1.2 1.2h-.7v.7l-1.2.8v3.8l3.5-3.4h.7l.4-1.2h.8l.8-1.5 14.5-14.6 2-2 4.2-4.1h3.8v.7l-3 2.7-1.2.4-.8 1.5-1.5 1.6h-.8l-.7 1.5-3.5 3.5-1.1 1.1h-1.2l-.8 2-4.2 4.2h-.8l-.7 1.5h-.8l-.8 1.5h-.7v.8h-.8v.8l-2 1.9-2.6 2.7h-.8v.7h-.7l-.8 1.6h-.8l.4 3.8 3-3h.9l.7-1.6 12-11.9 1.8-2 1.6-1.5h.7l.8-1.5 10-10 1.9-2.3h.8v-.7h3.8l-.8 1.5-8.8 8.8-2 2-2.2 2.6-3 2.7-7.4 7.3-.4.8h-.7l-.8 1.5-3 2.7-8.9 8.8-.4 3-3 2.8-1.6 1.9h-.7v.8l-2.3 1.9-.4 1.1-2.3 1.6-5.8 5.7-.4.8h-.7l-.8 1.5h-.8v.8l-1.1.8.4 3 3-2.7L156 216l1.5-2h.8v-.7h.7v3.9h-.7v.7h-.8l-.8 1.6-1.9 1.5-1.9 2-3 3-2 2.3-1.5 1.5h-.8l-.8 1.6-.7 1.1-1.6.8-.3.7h-.8l1.1 2.7 2.7-2.3 5-5 2-1.9 4.2-4.2 1.1-1.2h.8v-.7h.7v3.4l-3 2.7-1.6 2.3-1.5 1.6h-.8v.7l-2.3 1.6-2.7 3-2.3 2 .4 2.6 1.6-.7 3.8-3.9 2-1.9 4.5-4.6 1.2-1.1h.7v3.4h-.7l-.4 1.2-3.9 3-.3.8h-.8v.8h-.8l-.7 1.5-2.3 2.7h-.8v1.1l-1.2 1.2-.7.7-.8-.3-.4 1.5h-.4v-2h.8l-.4-1.5-.7-.3v1.1h-1.2l-2.3-4.2-1.5-2.7.4-2h1.1l-.8-2.6h-.7v.8l-1.6.4-.7-1.6.4-1.9.7-1.5h-1.5v-.8l-2 .8-1.9-5-1.1-3.9-1.2-3-.7-4.6-1.2-4.6-1.1-10v-14.6l1.1-8.8 2-8.4 1.5-4.3h1.1l2-1.9h.7l.8-1.5 1.1-.4.4-1.2h.8l.8-1.5 15.7-15.7.4-.8h.7v-.8z"/><path fill="#a42323" d="M380.3 143.8h10.4l5.3.7.4.4v2.3l-19.6 19.6-.3.8 3.4-.4 2.3-2 2-1.9 4.2-4.2.3-.7h.8v-.8h.8l.7-1.5 1.6-1.6h.7l.8-1.5 2.3-2v4l-5 4.9-2.7 3-3.4 3.1-.4.8h-.8v.8h3.9l.7-1.6 4.6-4.2 2-2.3h.7l.4-.8v4.3l-4.2 4.2h3l1.2-.4v1.2l1.2-.4h3v.7h-.7v.8l-3.1 2.7-.4 3.8 3-2.7 2.8-3h.7v-.8l1.6-1.5h3.8v.7h-.8v.8l-3 2.7-6.2 6.5-1.1 1.2h-.8l.4 3.8 12.7-12.7 1.9-2.3h.7v-.7h3.5l-.8 1.5-4.6 5-13 13h-.8l.4 3.9 23.4-23.4h3.5l-.8 1.5-26.1 26v4l3-3.1 2-2 2.3-2.6 2.7-2.3 1.9-2 2.3-2.7h.8v-.7h.7v-.8h.8v-.8h.8v-.7h.7l.8-1.6 11.5-11.5h.8v-.7h3.8v.7l-3 2.7-31.9 31.9-.4 5.3-.4.4h-2.3v-.7l.8-.4H391l-3 2.3h-2.7v-.8l2-2H384l-3.8-8.7-3.8-6.2-3.1-3.8-3.8-3.5-4.3-3-5-3.1-2.2-.8-.8 10.8-.4 3.4-1.2-.4v-.7h-.7l.7-1.6.8-3v-1.6l-3.4 3.5-1.6-.8-.4-1.5 2.3-2 2-2.2h.7v-.8h.8v-4.2h-.8l-.7 1.5-3.1 3h-.8l-.7 1.6-2 2-1.5-.8-.8-.4.8-1.6 9.2-9.2.4-3.8h-.8l-.7 1.5-5 5-3 2.7-2.8 3-2.3-.3v-1.5l9.6-9.6 2-2 .3-.3 2.7-.4 3.5-3.5h.7l.8-1.5z"/><path fill="#1b1511" d="M314.7 131.1h2.3l9.2 2.7 6.1 2 13.9 3 10 2 2.6.3v1.1l-1.5 1.6v3.4l5.4-5.3 3.4.3v.8h-.8l-.7 1.5-7.3 7.3v3.1l1.1-.4v-.7h.8v-.8h.8l.7-1.5h.8v-.8h.8l.7-1.5h.8v-.8l3-2.7 3.1-3 3.5.3v.8l-3 2.7-2.4 2.7-3 2.6-7.7 7.7v3.5l17.6-17.7 2-1.9h3.4l-.8 1.5-18 18-2 2-2.6 2.7-2.7.4-1.1 1.1h-.8l-.8 1.5-9.2 9.2-.7.8.3-2-1.5.9-2.7-.4-1.5-1.2.4-1.9 3-2.7 1.6-1.5.7.4-1.9 1.9-3 3 1.5 1.2 1.1.4.4-1.2h.8l.8-1.5 6.9-6.9h.7v-.8h.8l-.4-.7H345l-2 1.1v-.7h-.7v-.8h-3l-4.7 1.1-.3-.7H330l-3 .7v-.7h-4.6l-1.2.4v1.1h-.7v.8h-.8l-.4 1.1-3.5.4-5.3-1.1-1.6-.4-3.4-1.2-.4-1.9h-.8l-1.5 1.5.4 3.1 1.1 2.7 1.2 5-.8.7h-9.2l-1.1-.3h-12.7l-2.3.3h-1.5v-.7h-.8v-1.2l-4.2 2h-2.3v-1.2l3.4-.4 2.7-2.7h1.2v2.7h21.5l5 .8-1.6-5.4-2-4.6v-2l2-1 8-8.1 2.7-2.3 2.7-3 .8-.9.4-3h-1.2v.7l-3 2.7-3.9 3.9-2.7 3-4.6 4.6h-.7l-.8 1.6-2.7 2.3H294l2.3-2.7 20.3-20.4v-3.4l-15 15-1.9 2.3h-.7v.7l-3.1 2.7-1.5 2-3.1 2.6-.8 1.2h-3.8l.8-1.6 20-20 .3-.7h.8v-.8l3-2.6 5-5v-3.5l-25 25-1.8 1.9-5.8 5.7-1.5 1.6H279l.8-1.6 21.5-21.5.4-.7h.7l.8-1.6 3-2.6z"/><path fill="#7c1717" d="m109 221.7 1.2.3 3 10 1.6 4.6 3 7.7 5.8 11.5 3.5 5.8 1.5 2.3v1.1h.8l2.3 3.9 2.3 3-.4 5-.8 6.5h-.7l-2.7-3-3.8-3.5-2-1.5-1.9-1.2-3.4-2.3-2.7-1.9-9.2-4.2-4.2-1.6L94 262l-3.8-.7h-15l-8.4 1.1-5.4 1.2.8-2.3h.7l.8-2 4.2-5 2.7-3 1.5-2h.8v-.7l3-2.7 4.7-4.6 3-2.7 4.3-3.4 6.1-4.6 7.3-4.6 6.9-3.9z"/><path fill="#474b4d" d="M422.1 367.5h7l7.6 1.5 6.1 2.3 5 2.7 3.5 2.7 2.7 3 2.6 5 1.2 4.6v3.5l-1.5 3.8-2.7 3-2.7 1.6-3 .4h-3.5l-.4-8.8-1.5-5.4-2.7-4.2-4.3-4.2v1.1l1.6 6.1v8.1l-1.2 5-1.5 3-3.8 2.4h-5.4l-4.2-.8-.4-7.3-.4-3-.8-2.7-.7-2.3-2.7-3.9-3.5-3.8v-.8h-.7l1.5 4.2.4 3.5v7.7l-1.2 4.6-1.5 2.3-3 1.5h-6.6l-4.6-2.3 1.5-6.5 1.2-3.9.4-3 .4-13 6.9-4 4.2-1.4 5.7-1.6z"/><path fill="#1d1713" d="M396.4 145h3.5l9.2 1.9 8.8 2.3 3.5 1.5 4.6 2 5.3 3 4.6 3.4.4 1.6 1.2-.4 1.5 1.9v.8l-2.7 2.3-.4 2.7-3 2.6-2 2.3h-.7l-.8 1.6-4.6 4.2-3.4 3.4-.4.8h-.8v.8l-2 1.9-1.5.8-.3 1.1-2 1.6-1.9 2.3-3 2.6-1.6 2-2.7 2.3-2.6 3h-.8v.8h-.8l-.7 1.5-2 2-1.5 1.5 3.5-.4 5-4.6 5-5.4 1.5-1.5h.7l.8-1.5 21.5-21.5.4-.8h.7v4.2h-.7v.8l-2.3 2-2.7 3-2.3 2.3h-.8v.7h-.8l-.7 1.6h-.8l-.8 1.5-1.9 1.6-.4.7h-.7l-.8 1.6-14.6 14.5h-.7v-.7l-2 1.1-2.6 2h-3.1v.7l-.8.4h-2.7l.4-.8 2-.4.3-5.3 34.5-34.6h.8v-.7H428v.7l-3 2.7-9.7 9.6-.4.8h-.7v.7h-.8v.8h-.8v.8h-.7v.7l-2 1.6-1.9 2.3h-.7l-.8 1.5h-.8l-.7 1.6-2 1.9-1.9 1.9h-.7l-.8 1.5-2.7 2.7h-.4v-4.2l26.9-26.9.4-.7-3.5.4-23.4 23.4h-.4V187l3-2.7L413 171l2.7-3.4h-3.5v.7h-.7l-.8 1.6h-.8l-.7 1.5-12.3 12.3h-.4v-4.2l3-2.7 5.8-6.2 1.6-1.5h.7v-.8h.8v-.7h-3.8l-.8 1.5h-.8v.8h-.7l-.8 1.5-4.2 4.2h-.8v-3.8l2.7-2.7h.8v-.8h.7v-.7l-4.2.4-.4-.8-.7.4h-3.5l2.3-2.7 2-2v-3.4h-.8l-.8 1.5-4.2 4.3-2 1.5-.3.8H384v-.8h.8l.8-1.5 3-2.7 2.7-3 4.6-4.7v-3l-2.3 1.9-1.9 1.9-1.5 1.9h-.8v.8h-.8l-.7 1.5-4.6 4.6h-.8l-.8 1.5-1.9 1.6h-3.4l.7-1.6 18.8-18.8z"/><path fill="#7b8081" d="M231.8 189h8.5l6.1 1.2 8.8 3 8.9 4 8.4 4.1 3.8 2.7v.4h-3l-5.4-1.2-7.7-1.1-4.6-1.2-1.5-.7 2.3 3.8v.8l-2.7-.4h-10l-5.7.8-7.7 2.3-5.8 2.7-4.6 2.3-4.6 3.4-1.9 1.5h-.8v.8l-3 2.7-6.2 6.1-6.1 4.6-5 3.1-6.1 3-6.2 3.1H179v.8l-3.5 2.3-3 2.3-5.4 4.6-2.3 2-3.5 4.2-3 4.2-2.3 4.2-3.1 6.1-2 5-1 4.2-3.5 4.6-1.6 2.4-.3-.8.7-7.3 2-9.2 2.6-8 3.1-5.8 3.5-4.6 4.2-4.6 3.8-3.9 5.4-4.2 3.8-2.7 7.3-4.6 6.1-3.4 6.6-3.1 6.9-4.6 2.7-2.3 2.6-3.8-3.4 1.1-3 .4h-8.9l-2.3-.4v-.8l3.8-1.1 7.7-3 10.7-5 11.2-3.9 8-2 8-1 5.5-.5-2.3-2.3v-.7l-1.6-.8-3.4-3-3.9-2.4z"/><path fill="#454848" d="M296.7 387.4h1.9l1.5 3.8 2.3 4.3 4.2 5 2.7 2.2 4.6 2.7 6.2 2h7.3l6.1-2 3.4-2.3 1.6-1.5h.8v-.8h.7l.4-1.1 2 1.9 2.6 3.8v.8l-5.7 4.2-6.6 3-6.9 2.4-2.3.8-9.2 1.1h-9.6l-8-1.1-3.9-.8v-1.2l3.5-1.1 4.2-3 1.2-1.2h.7v-.8l-7.7 2h-8l-6.5-1.2-9.2-2-3.5-1.1-5.7-2.3-6.2-3.5-1.1-1.1v-.8l4.2-3 7.3-4.6 5.7-3.1h2l.7 1.1 4.6 1.2h7.3l7-1.5z"/><path fill="#7b8081" d="m319.3 182.5 4.6 1.2 6.1 3 6.6 3.9 4.2 3 5 4.7 3.4 3.8 2.7 3.8 3 6.2 2 5.7v3.5l-.8 4.2h-.7l-2.7-8-3.5-6.6-3.4-4.2-2.3-2.7-5.4-4.2-4.6-3-2.7-1.6-1.1-.8 1.5 3 2 5.8v9.6l-1.6-.7-4.2-4.2-5.4-3.9-3.8-1.9v-.8l-2-.4-5.7-2.3-4.2-1.1-6.2-.8-8-.4h-13.5l.4.8h-.7l.3 2.7-.7-.8-2-3.8-3.4-3.8-3-2.3v-.4l8.4-.4h16l7.8 1.1 10 2.7 4.1 2 3.9 1.9 4.6 3-2-8.4-2.6-7z"/><path fill="#a32221" d="m439 162.6 1.2 1.1 1.9 2.7v1.2h.7l2.3 6.1.8 6.1v6.6l-.4 5.3-2.3 8.9-1.5 3.8-.4 1.5h-.8l-.3 2-.4-.8-3.1.4-1.2.4v-4.7l-3 2.7-1.2 1.2H428l.4-1.2h.7v-.7h.8l.8-1.6 3.8-3.8 1.1-.8.4-3.8-3 2.7-8.9 8.8h-3.8l2.3-2.7 12.7-12.6h.7V187l-1.9 2-11.9 11.8-3 2.7-2 2.3h-.7l-.4 1.2-3.5-.4 2.3-2.7 20.4-20.3v-3.9l-7 7-1.9 1.9-3.4 3.8-2.7 2.7h-.8v.8l-1.9 1.9-9.2 9.2-3.4-.4v-.8l3-2.7 12.7-12.6.4-.8h.7l.8-1.5 2-1.5 1.8-2.4h.8v-.7l3-2.7 4.3-4.6h.8v-.8h.7v-4.2h-.7l-.8 1.5-21.5 21.5-2 2.3-2.6 2.3-2.7 3.1-3.4 3.5-2 1.5h-3.4l.4-1.2 1.9-1.9 2-1.9h.7v-.8l2.7-2.3 1.1-1.5h.8l.8-1.5h.7l.8-1.6 2.3-1.9.8-1.1h.7l.8-1.6h.8l.3-1.1h.8l.4-1.2 2.7-2.3 1.1-1.5h.8v-.8h.8l.7-1.5 6.2-6.2 1.9-1.5 2.7-3 2.7-2.7h.7v-2.7z"/><path fill="#8a2b2b" d="M310.9 129.2h1.5v1.2h1.1l.4-.8 7 2h1.9l1.5.7 3.8 1.5 5 1.2 3.5.3v.8h2.3l3.4 1.2 8 1.5 2 .8 6.5.7 2.3 1.6 1.2-.4v1.1l-5 5h-.4v-3.8l2-2.3-7-1.2-13.8-3-6.9-1.6-8.8-2.7-5.4-1.5h-2.3L304 142.2l-1.6 1.6h-.7l-.8 1.5-21.5 21.5-.4.8 3.5-.4 1.1-.4.8-1.5 6.1-6.2h.8l.8-1.5 24.5-24.6h.4v3.9l-7.7 7.6h-.7v.8h-.8l-.8 1.6-20 19.9-.3.8h3.8l.8-1.6 1.5-.7.8-1.6h.8l.3-1.1h.8l.8-1.6 1.9-1.9h.8v-.7l1.9-1.6 2.7-3 13-13h.4v3.7l-22.6 22.7h3.4l3-2.7 2-2 5.8-5.7 2.6-3 4.3-4.3h.7v-.7h1.2v3l-3 3.1-2.8 3-3 2.8-6.6 6.5H301l1.1 3.4 2 5.4.3 3-5-.3-21.4-.4v-2.7l-2 1.2-1.9 1.9-4.2.4 2.3-2.7 2-2h.7l.8-1.5 1.5-1.5.4-6.9 34.1-34.1.4-.8z"/><path fill="#343837" d="M388.4 288.4h6.9l6.1 1.2 4.6 1.9 3 1.1v1.2l-8.4 2-1.1.3v.8l3 .3 7 1.6 10 3.8 6.8 3.8 3.5 2.7 2.3 2.3h1.1l1.6 4.3 2.7 7.2.7 2.7v2.3l-1.5.4-3.5-1.5-2.6-1.2-1.6-2.3-1.1-1.9-1.2-1.1-.4-1.2-1.9-2-1.5-1.4v-.8l-1.5-.8-5.8-5.3-2.7-1.6-5.4-3-3-1.6-7.3-2.3h-10.4l-5.7 1.2-4.3 1.5-3.4 2-2 1.4-1 1.2.7-2.3 3-4.6 2-2-2.3.8v.8l-2.3 1.5-4.6 4.3-2.3 2.3h-.8l-.8 1.5-3.8 5-1.5 3h-.8l-.8 2-.7 1.1h-.8l-.8 2-.7.7h-1.2l-1.1-3.4-1.6-2.3v-.8h.8v.8l1.5.7 1.2.8v-.8l1.5-1.5 3.9-5.8 3-3.8 4.6-5.4 5-5 5.8-3.8 4.2-2.7 3.8-1.5z"/><path fill="#651c1b" d="M193.5 167.6h3.8l-.8 1.5-8.8 8.8-2 2-2.2 2.6-3 2.7-7.4 7.3-.4.8h-.7l-.8 1.5-3 2.7-8.9 8.8-.4 3-3 2.8-1.6 1.9h-.7v.8l-2.3 1.9-.4 1.1-2.3 1.6-5.8 5.7-.4.8h-.7l-.8 1.5h-.8v.8l-1.1.8.4 3 3-2.7L156 216l1.5-2h.8v-.7h.7v3.9h-.7v.7h-.8l-.8 1.6-1.9 1.5-1.9 2-3 3-2 2.3-1.5 1.5h-.8l-.8 1.6-.7 1.1-1.6.8-.3.7h-.8l1.1 2.7 2.7-2.3 5-5 2-1.9 4.2-4.2 1.1-1.2h.8v-.7h.7v3.4l-3 2.7-1.6 2.3-1.5 1.6h-.8v.7l-2.3 1.6-2.7 3-2.3 2 .4 2.6 1.6-.7 3.8-3.9 2-1.9 4.5-4.6 1.2-1.1h.7v3.4h-.7l-.4 1.2-3.9 3-.3.8h-.8v.8h-.8l-.7 1.5-2.3 2.7h-.8v1.1l-1.2 1.2-.7.7-.8-.3-.4 1.5h-.4v-2h.8l-.4-1.5-.7-.3v1.1h-1.2l-2.3-4.2-1.5-2.7.4-2h1.1l-.8-2.6h-.7v.8l-1.6.4-.7-1.6.4-1.9.7-1.5h-.7l-1.2-1.2h-1.1l-.8-4.6-1.2-.4-.4-4.6v-.7l-1.1-.4-.8-3.5 1.6-2.7 1.9-1.9 2.7-2.3h1.5l.4-.7 3 .7v2h.8l2.3-2h4.6v2.3l-1.9.8.4 1.1 3.4-3 .4-1.2 1.6-.4h2.7l.7.4v2l-.7.7.7.4v-.8l.8-.7.8-2.3 1.5-2.4-1.5-.3v-5l1.9-1.2-.8 1.6h-.8l.4 3.8 3-3h.9l.7-1.6 12-11.9 1.8-2 1.6-1.5h.7l.8-1.5 10-10 1.9-2.3h.8z"/><path fill="#7b8182" d="M66.9 277h2.3l-1.6 1.8-3 2.7L61 285l-5.4 3.8-6.1 3.5-1.2 1.1 2.7.4 6.2 3 4.6 2.7 2.7 2.3-1.6.8-8 4.2-5.4 3.5-5.8 4.2-5.3 4.6-5 5-3 3.8-4.3 5.8-3.8 6.1-2.7 4.6-2.3 4.3-2 3.8-1.9 3.4-.3-1.5.7-5 2.3-6.9 3.9-8.4 5-8.5 3.4-4.2 3.8-4.2 2.7-3 4.6-4.3 4.6-3.5 5.4-3.4 2.7-1.5h1.1v-.8l-1.9-.4-4.2-1.5-4.6-1.2-2.7-.4-7.7-.3 1.2-2 3.8-3.4 3.9-3 7.2-5 6.6-4 4.6-1.8z"/><path fill="#797f80" d="M431 262.3h4.2l7.3 1.6 6 3 4 3.1 3.8 3.8 4.2 6.2 3 5.7 4.3 10 2.7 5 4.2 6.1 3.8 5 3.5 3.5 3 2.7 1.2.7v.8l1.5.8 5.4 5.3 3.4 4.6 3.1 5.4 2 4.2 1.5 5h-.8l-2.3-3-2.7-2.4-4.6-3-2.7-3.9-3.8-5-2.7-2.3v-.7l-1.5-.8-3.5-2.7-5-4.2-3-3-3.9-5-3.8-6.2-3-6.1-4.3-10-3-7.7-4-6.1-2.6-2.7-5-3-7.7-3.5-2.3-.4z"/><path fill="#353939" d="m225 263.5.7.4-1.2 5-.3 3h-.8v2.3l-1.5 5.4-1.2 5.7-3.4 12.7-1.6 3-1.9 4.7-3 6.1-2.8 4.2-2.3 3.1-3 3.5-3.9 2.6-3.4 2.4-5.4 2.6-6.1 2.3-3.9 1.2v-.8l3.1-2.3 5.8-5.7 3.4-4.3 3.5-5h.7l.4-1.5 3.9-6.1 3.8-7 .8-1.5h.7l.4-2.6 1.5-3.5 1.6-3.8 1.5-3.9 2.7-10 .4-.7h1.5v2.7l1.2-.8 1.1-2.7h.8l.8-2.3 4.2-6.9.7-.4z"/><path fill="#7a8080" d="M281 326h11.8l7 1.2 3 1.1 2.3 3 .8 2.4-4.6-.4-5.8-.8h-16.1l-6.5 1.6-1.6.4v.7l3.5 1.2 3.5 2.7.7 1.5-7.7.4-6 1.5-4.7 2-5.4 3-4.2 3-6.1 5.8-3.9 5-3.8 6.2-3 6.5-1.2 4.2-2 2.3h-.3v-5l.7-6.1 2.3-7 3.1-5 2.7-3.4 3.5-3.8 3.8-3.5 5-3.4 5.4-3 5.7-2h1.5v-.8l-3.8-1.1-3.4-1.2-3.1-.4v-.7l6.5-3.1 9.6-3 7.7-1.6z"/><path fill="#a92526" d="m109 221.7 1.2.3 2.3 7.7v1.2l-4.6 2.3-3.4 2.3-4.3 2.3-3.8 3-3.8 3.1-2.3 2h-.8v.7l-3 2.7-1.2.4v.7l-2 1.6-.3.7h-.8v.8h-.8l-.7 1.5h-.8l-.8 1.6h-.7l-.8 1.5-1.1 1.5h-.8l-.4 1.6-8.4 1.1-5.4 1.2.8-2.3h.7l.8-2 4.2-5 2.7-3 1.5-2h.8v-.7l3-2.7 4.7-4.6 3-2.7 4.3-3.4 6.1-4.6 7.3-4.6 6.9-3.9z"/><path fill="#691d1c" d="M237.6 127.7h.8l-.4 2.3-2.7 3-19.2 19.2-2 2-4.1 4.2-2.7 3-5.8 5.8h3.5l11.9-12 1.9-2.2 3-2.7 1.6-2 1.5-1.4h.8v-.8l1.5-1.6h.8v-.7h.8l.7-1.6h.8l.8-1.5 2.6-2.3.4-.8h.8l.8-1.5 2.3-2v3.5l-.8 1.6-2 1.9-2.6 2.7h-.8l-.7 1.5h-.8l-.8 1.6-1.5 1.5h-.8v.8l-1.9 1.5-2 2-1.4 1.8-2.7 2.3-2 2.3-3 2.7-.8 1.2h-.8v.7L210 166l-.4.8h-.8v.8h4.2l.8-1.6 20-20 .3-.7h.8v-.8h.8v-.7l1.9-1.6h.4v3.9l-2.7 2.7h-.8l-.8 1.5-4.2 4.2-1.9 2-1.1 1h-.8v.9h-.8l-.7 1.5-1.6 1.5h-.7l-.8 1.6-1.5.7-.8 1.6-2 1.9h3.5l4.2-4.2h.8l.8-1.6 2.3-2.3h.7v-.7h.8l.8-1.6h.7l.8-1.5 3.9-3.8 1.5-2h.8v4.3l-5.8 5.3-7 7-.7 1h3.5l1.5-1.8h.8v-.8l3-2.7 1.6-1.9 1.9-2h1.2v3.5l-2.7 2.7h-.8l-.8 1.6-1.5 1.5h3l2.4-1.5v2.3h.7l-.7 3-.8-.4.4-2.3-4.6.8-2.3-.4v-.4h-10.8l-4.6-.3 1.2-2.3-2.7 2.3-1.2.3h-5l-.7.8-2.7.4v-1.2h-3.8l-1.2.8-.7-1.1v-2.3l3-2.7 2-2 1.9-1.9 1.9-2.3 3-2.7 1.6-1.9h.7v-.7h.8l.8-1.6 1.9-1.9 2.7-2.7h.8v-.8l1.5-1.5h.8v-.8h.7l.8-1.5 8.4-8.4h.8v-.8h.8v-.8h.7l.8-1.5 2-.8zm-20.7 36.8.4.8z"/><path fill="#7b8081" d="m365.3 195.6 1.6.7 4.2 5.8 3 6.1 2.4 6.2 1.1 6.1v3l3.9-1.8 4.6-1.6 5.3-.7h5.4l4.6.7 5.8 2 8 3.8 2.7 1.9v.4l-8 1.1-2.4-.7v-.8l-6.1-.8h-13l-8.1 2.3-6.1 3.1-2.7.8v-8.5l-.4-5-1.5-6-2.3-7-2.7-4.6.4-4.6z"/><path fill="#151b1c" d="m259.8 288.4 3.5 1.2 6.5 3.4 5 3 6.9 2.8 4.6 1.1 6.1.8h16.2l.7.8v2.6l-3 2.7-3.1 1.6-8.5 1.9h-6.9l-6.1-1.2-6.1-1.9-6.6-3.8-5-4.6-3-4.2-1.2-2-.3-3.8z"/><path fill="#8b2c2c" d="M380.3 143.8h10.4l3.8.7-.8 1.6-6.1 6.1-2 2-7.2 7.2-2 2-3.4 3.4-.8 2-2.6.3-1.6-.8V166l-1.9 1.2-1.1 1.5h-4.3l-.3-1.9-2.7 1.5h-.8v.8h-.8l-.7 1.5-5 5-3 2.7-2.8 3-2.3-.3v-1.5l9.6-9.6 2-2 .3-.3 2.7-.4 3.5-3.5h.7l.8-1.5z"/><path fill="#2a0f0a" d="M224.5 128h3.9l-2.3 2.7-.4.8h-.8v.8l-3 2.7-8.5 8.4-.8 1.1h-.7v.8h-.8v.8h-.8v.8h-.7v.7h-.8l-.8 1.6-1.5.7-.8 1.6-1.5 1.5h-.8v.8h-.7v.7h-.8v.8h-.8l-.7 1.5-1.6 1.6-.3 3.4h.7v-.8h.8l.8-1.5 31.4-31.4h3.9v.7l-2 2h-.7v.7h-.8v.8l-3 2.7-6.6 6.5-.4.7h-.7v.8h-.8l-.8 1.5h-.7v.8l-3.1 2.7-1.6 2-1.5 1.5h-.8v.7h-.7l-.8 1.6-3 3h-.8l-.8 1.6-1.5 1.5h-.8l-.8 1.5h-.7l-.8 1.6-2.7 2.7h-.7l-.4 5.7-2 2.3h-.7l-.4 1.2h-.8v.7l-3 2.7-5.4 5.4-2 1.9-1.5 2-2.6 2.2-2 2.3-1.5 1.6h-.8v.7h-.7v.8h-.8v.8h-.8l-.4 1.1-1.1 1.2h-.8v.7h-.7v.8l-3.1 2.7-1.5 1.9h-.8v.8h-.8l-.4 1.1h-.7v.8h-.8l-.4-1.5-.7.3-1.6 3.9-2.7 3.4-1.9 2-3.4 2.6-.4-1.1 1.9-2h.8v-.7h.7l.8-1.5 1.5-1.6h.8l.8-1.5h.7v-3l10-10h.8l.7-1.6 1.6-1.5h.7l.8-1.6 9.2-9.2h.8l.8-1.5h.7l.8-1.5 1.5-.8.8-1.5 8.8-8.9.4-.7h-3.8l1.1-.8h2.3l1.2-2 .7-1.8h-.7l-.4-2.3.4-3.1 1.9-2 2-1.8 1-.4.4-2-1.5.4-3 3.1-.8-.4 10.7-10.7h.8l.7-1.6 2.7-3 2-1.6h.7v-.7h.8l.8-1.6 5-5 1.9-1.9zM205 149.3l-1.6 1.5v.8l2-.8.3-1.2zm-42.6 56"/><path fill="#310e0a" d="M314.7 131.1h2.3l9.2 2.7 6.1 2 13.9 3 10 2 2.6.3v1.1l-1.5 1.6v3.4l5.4-5.3 3.4.3v.8h-.8l-.7 1.5-7.3 7.3v3.1l1.1-.4v-.7h.8v-.8h.8l.7-1.5h.8v-.8h.8l.7-1.5h.8v-.8l3-2.7 3.1-3 3.5.3v.8l-3 2.7-2.4 2.7-3 2.6-7.7 7.7-.4-.8.8-1.5.7.4v-.8h.8v-.7h.8v-.8l-.8-.4-.4.4-.4.4h-2.3v-4.2l1.6-1.6h.7v-.7h.8l.8-2v-.7h-.8l-.4 1.1-2.3.4v-5l.4-1.1-3.5-.4-1.9-.8-6.5-.8-1.1-.7-4.6-.8-5-1.1-5.4-1.2-3.5-1.1-5.3-1.6-2.3-.4v3.9l-1.2 3 .8.4v4.2h-.4l-.4-3.4-15 15-1.9 2.3h-.7v.7l-3.1 2.7-1.5 2-3.1 2.6-.8 1.2h-3.8l.8-1.6 20-20 .3-.7h.8v-.8l3-2.6 5-5v-3.5l-25 25-1.8 1.9-5.8 5.7-1.5 1.6H279l.8-1.6 21.5-21.5.4-.7h.7l.8-1.6 3-2.6z"/><path fill="#151c1b" d="M368 318.3h2.7l4.6 4.6 3 2.7 1.2.4 1.2 1.2 5.4 2.7 6.9 1.9h16l2 .7.4 1.6-2 2.3-5.3 2.7-4.6 1.1H389l-5.7-1.5-5.4-3-2.7-1.6v-.8l-1.5-.8-3-3-3.5-5.4-1.2-3 .4-1.6z"/><path fill="#e88074" d="m317 380.5 2 .4 2.2 3.8.8 2.3 1.1 5.4.4.8.4-1.2v-6.5l-1.1-5 1.5.8 4.2 4.2 1.5 1.9 3.1 2.7 2 1.5-.5 3.5-2.3 3-2.3 1.6-4.2 1.1h-4.6l-3.8-1.1-3.9-2.7-2.3-2-2.6-3.8-2.3-4.2-1.2-1.5v-1.2l6.5-1.5z"/><path fill="#8f2c2c" d="M396 151h.4v4l-5 4.9-2.7 3-3.4 3.1-.4.8h-.8v.8h3.9l.7-1.6 4.6-4.2 2-2.3h.7l.4-.8v4.3l-4.2 4.2h3l1.2-.4v1.2l1.2-.4h3v.7h-.7v.8l-3.1 2.7-.4 3.8 3-2.7 2.8-3h.7v-.8l1.6-1.5h3.8v.7h-.8v.8l-3 2.7-6.2 6.5-1.1 1.2h-.8l.4 3.8 12.7-12.7 1.9-2.3h.7v-.7h3.5l-.8 1.5-4.6 5-13 13h-.8l.4 3.9 23.4-23.4h3.5l-.8 1.5-26.1 26-.4 3.5-1.1-.3.3-3.1 1.2-3.5h-.8v-7.3l-.4-.3v-4.6l2.4-2.7h.7v-.8l2-.8v-1.1h.7v-.8l-2.3.8-.4 1.5-1.9.8-1.2-.8v-3.8l2-2 .7-1h-5.7l-1.6-.8h-9.5l-1.2.3-4.2-.3.4-.8h3.4l2.3-2 2-1.9 4.2-4.2.3-.7h.8v-.8h.8l.7-1.5 1.6-1.6h.7l.8-1.5z"/><path fill="#777e7e" d="M138.6 349.4h30l6.8 1.2 7.7 2.3 3 1.1v.4l-7.2.8-13 .4h-8.5l-8.8-.8h-15.4l-11.9.4-5 .4-2.3.3 1.6-1.5 5.7-2 6.2-1.4z"/><path fill="#32100b" d="m435.5 159.1.8 1.6 1.2-.4 1.5 1.9v.8l-2.7 2.3-.4 2.7-3 2.6-2 2.3h-.7l-.8 1.6-4.6 4.2-3.4 3.4-.4.8h-.8v.8l-2 1.9-1.5.8-.3 1.1-2 1.6-1.9 2.3-3 2.6-1.6 2-2.7 2.3-2.6 3h-.8v.8h-.8l-.7 1.5-2 2-1.5 1.5 3.5-.4 5-4.6 5-5.4 1.5-1.5h.7l.8-1.5 21.5-21.5.4-.8h.7v4.2h-.7v.8l-2.3 2-2.7 3-2.3 2.3h-.8v.7h-.8l-.7 1.6h-.8l-.8 1.5-1.9 1.6-.4.7h-.7l-.8 1.6-14.6 14.5h-.7v-.7l-2 1.1-2.6 2h-3.1v.7l-.8.4h-2.7l.4-.8 2-.4.3-5.3 34.5-34.6h.8v-.7H428l.4-.8h2.6l1.2.4v1.9h-1.2v1.5h1.2v-.7l2-1.6 1.4-4.2 1.6-1.1.4-1.6h-2z"/><path fill="#631d1c" d="M224.2 127.3h4.2l.4 1.9-.8 1.2h.8l.3-1.2 2-.8.7-.7h3.5v.4l-3 .3-32 31.9-.3.7h-.8v.8h-.7v-3.4l2.6-3.1h.8v-.8h.8v-.7h.7v-.8h.8l.8-1.5 3-2.7.8-1.2h.8v-.7h.7v-.8h.8v-.8h.8v-.8l1.9-1.9 10.4-10.3h.7v-.8h.8l.8-1.5 1.5-1.6h-3.5l-1.9 2-5.7 5.7-.4.8h-.8v.7l-1.9 1.6h-.8l-.7 1.5-2.7 3-3 2.8-7.8 7.6h-.7l.4-3.8 3.8-3.8 2-2 13.7-13.8 1.6-1.9H216l-2 2-1.8 2.2h-.8l-.8 1.6-5.3 5.3h-.8l-.4 1.2-2 2-1.4.7v.7h-.8l-.8 1.6h-.7v-3.5l1.5-1.9 2.3-1.9.4-.8h.7l.8-1.5 2-1.5.3-.8h.8v-.8h.7v-.7l1.6-1.6h.7v-.7h.8v-.8l2-.8v1.2l1.8-.8v-1.1h5.8l.8.7 2.7-.7z"/><path fill="#4c4f50" d="m482.7 334 1.6.8 3 5.4 3.1 5.8 2.3 7.3.8 4.2v8.8l-2 7.3-2.6 6.1-3.5 5.4-3.4 4.2-4.3 4.2-.7-.3 1.5-2 .4-1.1h.8l.7-2 2.7-4.2 1.6-4.6 1.5-3.8 1.1-6.5v-9.2l-1.1-5.8-2-6.1-3-6.2-2.3-3.4v-.8h-.8l.4-.7 2 1.9 1.5-.4 2.3.8v.7h1.1l-1.1-2.7V336h-.8z"/><path fill="#31100b" d="M419.8 166.8h3.5l.7.4v2.7l1.6-.8 1.5-1.5h.8v.7l-3 2.7-9.7 9.6-.4.8h-.7v.7h-.8v.8h-.8v.8h-.7v.7l-2 1.6-1.9 2.3h-.7l-.8 1.5h-.8l-.7 1.6-2 1.9-1.9 1.9h-.7l-.8 1.5-2.7 2.7h-.4v-4.2l26.9-26.9.4-.7-3.5.4-23.4 23.4h-.4V187l3-2.7L413 171l2.7-3.4h-3.5v.7h-.7l-.8 1.6h-.8l-.7 1.5-12.3 12.3h-.4v-4.2l3-2.7 5.8-6.2 1.6-1.5h.7v-.8h.8l.4-.7 2 .4 1-.8h4.3l.7.8v1.1l.8.4.4-1.2 1.2-.3z"/><path fill="#2d0f0a" d="m255.6 110.8 3.5.4-.8 1.5-4.2 4.2h-.8l-.8 1.6-8.8 8.8-.4.8 3.1-.4 2-2 1-.3.8-1.6 2-1.5 1.9-2 8-8 2.7.4v1.2l-10.7 10.7-2.3 2.7h-.8l.4-2h.8l-.8-.7-3.5 3.8h-5.3l.4-2.3-3.1 2-.4 1.1h-.8l-.3 1.5-2.7 3.1h-.8l-.4 1.5h-1.1l-.4 1.6-.8 1.1 2-.4-.8 1.6-2.7 2.3-2 2.3h-.7v.7h-.8l-.7 1.6h-.8v.8h-.8l-.7 1.5-2 1.9-2.6 2.7h-.8l-.8 1.5h-.7l-.8 1.6-11.5 11.5h-4.2l1.9-2 5-5 1.1-1.5h.8l.7-1.5 4.6-4.6h.8l.8-1.5 20.7-20.8 1.2-3 1.5-.8.4-.8h.7v-.7l2-1.6 1.1-1.5h.8v-.8l3-2.7.8-1.1h.8l.7-1.5h.8l.8-1.6zM231.8 138"/><path fill="#797f80" d="M394.1 236.2h13.4l5 .4 9.6 2.3 7.3 3.1 10.4 6.1 7.6 5.4 1.6 1.5-5.8.8H441l-4.2-3-4.6-2.7-6.1-3.1-6.2-2.7-8-2.7-8.9-2-1.5-.7-6.1-1.1-1.6-.4z"/><path fill="#7a7f80" d="M171.6 359.4h6.9l10 1.5 6.5 1.6 4.6 1.9 4.6 2.7 5.4 4.6 3.8 4.2 3.9 5.7 3.8 8.1v2l-2.3-2-3.5-4.2-8.8-8.8-5-3.9-5.3-3.4-6.6-3.5-6.5-2.3-6.5-1.9-2.7-.8-2-.7z"/><path fill="#310d0b" d="m269.8 103.5 2.7.4v.4l3.8 1.1 5.4 2 3 .7v.8l2 .4 2.7 1.1 1.9.4v.8l2.3.3 1.1.8 5 1.5 7.3 2.7 8 3.1 3.5 1.1 5 1.2 2.7.8 5.4 1.5.4.4 2.6.4 2.3.7 4.7.8 2.3.8 3.8.7 3 .8h1.6v.8l5.4.4 4.2.7.4.4 16 1.2 3.2.3h3l2.3.4 10 .8 13.8 2.7h3.8l.4.7 3.9.8 1.9 1.2 3.4 1.1 5.8 2.3 3 1.5v.8l2 .4 3.4 2.7 2.3 1.1.8 2 1.5.3 2 2.3.7.4v.8h.8l1.1 1.5v.8h.8v1.1h.8l2.7 4.6 1.9 5 1.5 4.6.8 1.2.4 3v5.8l-.4 7-1.2 6.4h-.7v4.3l-.8 1.1-1.2 3.9-1.9 4.6-.7 2.3-2.7 4.6-1.2 2.6-2.7 4.6h-.7l-.8 3.5-1.1 1.2h-.8l-.8 1.5-1.9 2 .8-2 3.8-5.8 3.8-6.9 3.1-6.1 2-4.2 2.6-8 1.5-8.1.4-3.1V179l-1.1-7.7-2.3-6.1-2.7-5-3-3.9-3.5-3.8-4.6-3.4-5.4-3.5-8-3.8-5-1.6-2-.7-10.3-2.3-8.8-1.6-16.2-1.5-11.9-.8-6.9-.7-10.7-2-11.9-2.3-6.5-1.5-7-2-2.2-.7-3.9-1.1-6.9-2.3-10-3.5-6.8-2.7-10.4-3.8-6.1-2.3-2.7-1.2-7-2.3-1.5-.3z"/><path fill="#661c1b" d="m198 168 .8.3.4 2.7.4 1.2-2.3 1.9.4.8 1.5.7-.4 3.9-1.5 1.5v1.1l1.2.8h-.8l-.8 1.5-4.2 4.3-1.5 1.5h-.8l-.8 1.5h-.7v.8h-.8l-.8 1.5-1.9 2-2.7 2.3-2.3 2.6h-.7l-.8 1.6-4.6 4.6h-3.9l.4-1.2 1.6-1.5h.7l.8-1.5h.8l.4-1.2h.7v-.8l2.7-2.3 2-2.3 1.8-1.9h.8v-.7l3-2.7 3.5-3.9h.8l.8-1.5 1.1-1.2h.8l.7-1.5 3.1-2.7.4-.7h.8v-3.9h-.8v.8l-2 1.5-.3 1.2-3 2.3-4.7 4.6h-.7v1.1l-2 1.6-.3.7h-.8v.8l-2.7 2.3-.4.8h-.7v.7h-.8v.8h-.8v.8l-3 2.7-.8 1.1h-.8v.8h-.8v.7h-.7v1.2l-2 1.1-.3.8h-.8l-.8 1.6h-.7v.7l-.8.4h-3.8l1.1-1.5h.8v-.8h.8l.7-1.5 3.1-3.1h.8v-.8h.7v-.7h.8l.4-1.2 1.1-1.1h.8v-.8h.8v-.8h.7v-.7h.8l.8-1.6 1.9-1.5 2.7-3h.7l.8-1.6 2-1.6 2.6-3 5.8-5.8h.7v-.7l3.1-2.7.4-.8z"/><path fill="#9f2222" d="m286 165.7.3 1.5.4.8h3.8l2.3-1.6.8.8v1.1h.8v.8l3-.4h1.2v-.7l1.5-.4 2 5 1 3.4v2l-.7.3-8.4-.4-15.4-.4-1.1-2.6h-1.2v-2l1.6-1.1v-3.5l5.3-.3.4.3z"/><path fill="#330f0a" d="M294.7 128h3.9l-2 2-6.5 6.5-2.6 3-1.2.4v.8l-3 2.7-5.4 5.4v3.4l1.5-1.5h.8l.7-1.5 7-7h.7l.8-1.5 4.6-4.6h.7l.8-1.5 2.3-2.3h.8l.8-1.6 3-2.6h3.5l-.8 1.5-1.1.4-.8 1.5-25.3 25.3-.4 3.5-1.2.4.4-4.3 2-2.3-1.6-.7v-5l1.2-1.5h.7l.4-1.2h-2.3v-5l2.7-3 1.1-.4v-.8l-1.5-.4v.8h-.8l-.3.7v-1.5h.7l.4-1.1 3-2.7 4-3.9h3.7l-2.3 2.7-10 10-.3 3.4 3-2.6 13.5-13.5zm-14.1 15.4-1.2.8.4 1.1 1.5-.8-.4-1.1zm-1.6 9.2-.7 1.2h1.5l-.4-1.2z"/><path fill="#671a1a" d="M137.5 206.7h4.2l-.4 1.2-2.3 1.9-2 1.9v.8h1.2v.7h-.7v1.2l1.5-.8v-.8h.8l.7-1.5h.8v-.8h.8v-.7l1.5-1.6h.8v-.7l1.1-.8h3.8l-.3 1.2-2 1.5-1.9 1.9-6.1 6.1-.4.8h-.8v.8h-.7l-.8 1.5-1.1.4v.8l1.9-.4.4-1.2 1.1-.4.8-1.1 1.1-1.2.4-1.5h1.2l.3-1.5h1.2l.8-1.6 1.5-1.5h.8v-.8h.7l-.4 2-1.1 1.1 3-2.7 1.6-1.5h.8l.7-1.5 1.2-.4v-.8h3.4l-.7 1.5-1.6 2h-.7l-.8 1.5-1.5 1.5h-.8v.8h-.8v.8l-1.9 1.9-3.4 3.4-2 2-4.2 4.2-1.9 1.1h-1.1l-.8-4.6-1.2-.4-.4-4.6v-.7l-1.1-.4-.8-3.5 1.2-.4.7-1.5h.8l.8-1.5 1.5-1.6h.8v-.7h.8z"/><path fill="#30100b" d="M435.2 179.5h.3v4.2L413 206.3l.8.4h2.3l2.7-3 2.7-2.8 3-2.6 9.6-9.6 1.2-1.6h.7v4.3l-3 2.6-12.3 12.3h3.4l11.2-11.1h.7v3.8l-4.6 4.2-1.5 2h-.8v.7l-1.1.4.4-1.5h.7l-.4-1.2-3 3.5-2 .8h-3l-.8-.4v-2.7l-2.3 1.9-3 1.5-2.4-.3-.3-2-2.7 2-2.3.3-2.7-.7-.4-2 1.2.4v.8h3.4l9.6-9.6.8-1.1h.7v-.8l3.1-2.7 2.7-2.7 2-2.3h.7l.7-1.5z"/><path fill="#2b0f0c" d="M257.2 167.2h3.8l.4 1.1h-.8l-.8 1.6-9.6 9.6h-3.4l-.8-.4v-1.2h-1.5l-.8 2-3 .3-4.6.4-5 .4-2.3.8v.7h-.8v-1.1l-2.7.7-4.6.8-3 1.5-4.3 1.2-.4 1.5 1.2.4v.8l1.5.8 2 1.5-.4 1.1-5.4-4.2-.8-.4v-.7l-1.1-.4v-.8l5.3-1.5 3.9-1.6 9.2-2.3 3.4-.3h6.6v-4.3l1.9-2.3 3-2.6 2-2h3v-.7h5.4v.7l1.1.8h-.7v.8z"/><path fill="#30100c" d="M317.4 149.2h.4v3.4l-.4 2.7v.8l.4.7v3.9l-.8 2.6.8.4 1.1 3.1.4.4v1.9l-1.5 1.5h-3.1l-2.7-.7h-3l-3.5-1.2-.4-1.9h-.8l-1.5 1.5.4 3.1 1.1 2.7 1.2 5-.8.7h-9.2l-1.1-.3h-12.7l-2.3.3h-1.5v-.7h-.8v-1.2l-4.2 2h-2.3v-1.2l3.4-.4 2.7-2.7h1.2v2.7h21.5l5 .8-1.6-5.4-2-4.6v-2l2-1 8-8.1 2.7-2.3 2.7-3 .8-.9z"/><path fill="#461916" d="m339.3 166.8 3 .4v.8h1.6l1.1-.8h4.6l.4 1.1h-.8v.8l-3 2.7-5 5-1.6 1.9-1.9-.4-1.1-1.1 4.2-4.3h.8l-.4-.7-3.9 3.8-1.1-.4-1.2 1.2h-2.3l-1.5-1.2v-1.1l-3.5.7-1.9-.3-1.1-2.3-.4.3h-3l-2-.7.4-2.3h.8v-.8h.7V168l1.2-.8h3.8l.8.4v.7l3-1.1h4.3l.3 1.1z"/><path fill="#343837" d="M436.7 386.2h.4v8.1l-1.2 5-1.5 3-3.8 2.4h-5.4l-4.2-.8-.4-7.3-.4-3-.8-2.7v-1.2h1.6l.4 1.2 3.8.7.4.4h4.2l2.7-1.1 1.9-2.3 1.1-.8h1.2z"/><path fill="#8f2a2a" d="m436 171.8.7.8v3l-.8 1.2-.4 2.3h.8l.4 1.5v3.5l-1.2 1.5-.7 2.3-2.7 3-10 10-3 2.7-2 2.3h-.7l-.4 1.2-3.5-.4 2.3-2.7 20.4-20.3v-3.9l-7 7-1.9 1.9-3.4 3.8-2.7 2.7h-.8v.8l-1.9 1.9-9.2 9.2-3.4-.4v-.8l3-2.7 12.7-12.6.4-.8h.7l.8-1.5 2-1.5 1.8-2.4h.8v-.7l3-2.7 4.3-4.6h.8v-.8h.7z"/><path fill="#2b0e09" d="m192.7 109.3 1.1.3-2.3 2.7-4.6 4.6-1.9 2-3.8 3.8-2.3 2.7-3 2.7h-3.5l-.4-.8h-1.2l-1.1 1.1-1.2.4h-3.8l.8-1.9.3-.8h.8v-.7h.8l.7-2h.8v-.7l1.5-.4v-.8h.8l.8-1.9 1.9-2 1.5-1.4-.7-.4 3-1.6 2.7-1.1 7-2.3 4.5-1.2z"/><path fill="#797f80" d="M103.3 338.3h9.2l9.6 1.5 8 2.3.4.8-7.6 3-2 .4-5-1.5-6-1.5H95.2l-9.6.7-3.5.8-1.5-.4 3-1.5 7-2.3 8-2z"/><path fill="#290f0a" d="M237.6 133.8h.8v4.2l-1.6 2.3-.4 1.6 2.7-.4-.4 4.6-1.5 1.9-1.1.8.3.7h1.2l-.4 1.2h-.8l-.7 1.5-3.9 3.9-1.9 2.3h-.8v.7l-3 2.7-2 2-3.8 3.8h-3.8l2.3-2.7 1.9-2 2-1.9 2.2-2.6h.8v-.8l2.3-2 2-1.8 4.1-4.3 2-1.9 1.5-1.5v-3.5h-.8l-.4 1.2h-.7v.7h-.8v.8h-.8l-.7 1.6-20 19.9-.4.8h-4.2v-.8h.8l.7-1.5 1.6-1.6h.7v-.7h.8l.8-1.6 1.5-.7.8-1.6h.8l.7-1.5h.8l.8-1.5h.7l.8-1.6h.8l.7-1.5 1.6-1.5h.7l.8-1.6 1.5-.7v-.8h.8l.8-1.5 2.6-2.4 2-1.9 3-3.4h.8l.4-1.6z"/><path fill="#641b1a" d="M158.2 144.2h.4v4.2l-3.1 2.7-10.4 10.3-1.9 2-2.7 2.6-.7 1.2h3l3-3 2-2 2-2 1.5-1.5h.7l.8-1.5 2-1.5 2.6-3 1.2-.5v3.9l-3.1 2.6-2.3 2.7-3 2.7-2.8 3 3.9.5.7-2 3.1-2.6 2-2 .7-1.1h.8v3.8h-.8l-.4 1.6-1.5.7-.8 1.2 4.2.4-.4 2.7-.7.3-.4-2.3-3.5-.3-.4-.8.4-.8-1.5.4-2 2H147v-.8l-7.2.7h-8.5v-.7l3.5-.4 4.2-4.3 2-1.9 14.9-15h.7l.4-1h.8z"/><path fill="#343838" d="M413.3 387.8h.4v7.7l-1.2 4.6-1.5 2.3-3 1.5h-6.6l-4.6-2.3 1.5-6.5 1.2-3.9 1.5-.7v1.1l2.7.8h7v-.8h.7l.7-2.3.8 1.6z"/><path fill="#923334" d="M213 97h19.6l10.7 1.1 10 2 5 1.1 6.1 1.5 5 1.6 6.2 1.9 4.6 1.5 4.6 2 10 3.8 6 2.3 6.2 2.3 7 2.3 6.8 2.3 5.8 1.5 3.4 1.2 3.9 1.1v.4l-4.2-.4-4.6-1.1v-.8l-3.9-.8-11.1-3.4-3.8-1.6-5.8-1.9-4.6-1.9-5-2-3-1-4.7-2-3.4-1.1-3-.8-.9-.8-4.6-1.5-3.8-.8-3.8-.7-2.7-1.2v-.8h-3l-.5-.3-3.4-.4-5-1.2-8.4-1.5-8.5-1.2H217l-14.2 1.6-5.4.7-2.3.8-6.1 1.2-5 1.5-5 1.5-7.7 3.1-4.2 2.3-3.5 2h-.7v.7l-3.5 2-5 3.4h-.7l-.8 1.5-1.2.4v.7l-1.5.8-.4.8h-.7v.7l-2.3 1.6-3.5 3.4-1.1 2-1.2 1.5-1.5.8-.4.7h-.8l-.7 1.6-.8 1.5h-.8v1.1l-1.9 2-1.2 2.3h-.7l-.4 1.9h-.8l-.7 2.3-1.2 1.9-.4 2.3-1.1.8-.8 1.5-.4-1.1 3.1-6.2 2.3-3.8 3-4.6 4.3-5 2.7-3 5.7-5.8h.8v-.8l4.2-3.5 5.8-4.2 5.7-3.8 5.8-3 8-3.5 3.9-1.2 3.8-1.5 11.5-2.7 10.4-1.5z"/><path fill="#661c1b" d="M162.4 167.6h3.8l-.7 1.5-4.3 4.2h-.7l-.8 1.6h-.8v4.2h.8l.8-1.6 5.3-5.3h.8l.8-1.6 2.7-2.3.3-.7h3.9v.7l-3 2.7-10 10-2 2-.4 3.8 3.1-2.7 12.7-12.7.4-.8h.7v-.7h.8l.8-1.6 1.1-.7h3.5v.7l-1.6 1.6h-.7l-.8 1.5-2.7 2.3-2.7 3-2.7 2.8-2.3 1.9-.4.7h-.7v.8h-.8l-.8 1.5-3.4 3.5-1.2 1.2h-.7v.7l-1.6.8v-1.2h.8v-1.1h-.8l-.3-1.2v-5.7l.7-2h-.7v-5.3l.7-3.5 2.3-2.3h.8z"/><path fill="#641818" d="m169 118.5.7.3-.4.8-2 1.2-1.8 1.9-3.1 3.4-2.7 2.3h-1.1v4.3l-3.9 3.4-1.9 2-4.2 4.1-.4.8h-.8v.8l-3 2.7-2.7 2.7-2 2.3h-.7v.7l-2 1.6-.3.7h-.8v.8l-.7-.4 1.9-4.2 1.1-2.7 3.9-5 2.3-3h.7l.8-2 4.6-5 3-3h.8l.8-1.6 2.3-1.5.4-.8h1.1v-.7h.8v-.8l5.4-3.5.7-.7h1.2v-.8l2-.4z"/><path fill="#912e2e" d="M427.9 167.6h3.8v.7l-3 2.7-31.9 31.9-.4 5.3-.4.4h-2.3v-.7l.8-.4H391l-3 2.3h-2.7v-.8l2-2H384l-3.8-8.7-3-5 .3-.8 1.6 2 .3 1.5h.8l2.7 5.7 1.5 3.5v1.1h2.7l.8 1.6.7.3v-1.1l1.6-.8h5l.7-3.8.8-1.2h.8v-.7h.7v-.8l-1.5-.8 3-3 2-2 2.3-2.6 2.7-2.3 1.9-2 2.3-2.7h.8v-.7h.7v-.8h.8v-.8h.8v-.7h.7l.8-1.6 11.5-11.5h.8z"/><path fill="#310e0d" d="m215 95.4 18.7.4 5 .8 9.2 1.1h1.6v.8l3.8.4 2.3.4v.7l4.2.4 5.8 1.6 3.4 1.5v.4h-2.6l-5.8-2-6.5-1-4.6-1.2-9.2-1.6-7.7-.7H213l-8 .7-9.6 1.6-11.1 2.6-5.4 2-6.5 2.7-6.2 3-4.6 2.7-6.1 4.2-5 3.9-1.5 1.5h-.8v.8l-3 2.7-5.4 5.3-3.1 3.9-2.7 3.4-.4-.8.8-1.5h.8l.7-2.3h.8v-.8h.8v-.7h.7l.8-1.6 2.3-3h.8v-.8l1.9-1.1 1.5-2 2-1.9 3-2.7 2.3-1.5 1.1-1.5h1.2v-.8l4.2-2.3 3.9-3 2.6-1.2 2.7-2 4.6-1.1.4-1.1 3.9-1.2h1.1v-.8l13.8-3.8 4.6-.8 3.9-.7 1.5-.4 6.5-.8 5-.4z"/><path fill="#892d2c" d="M435.2 168h.7v2.6l-1.5 2.3-21.5 21.5-2 2.3-2.6 2.3-2.7 3.1-3.4 3.5-2 1.5h-3.4l.4-1.2 1.9-1.9 2-1.9h.7v-.8l2.7-2.3 1.1-1.5h.8l.8-1.5h.7l.8-1.6 2.3-1.9.8-1.1h.7l.8-1.6h.8l.3-1.1h.8l.4-1.2 2.7-2.3 1.1-1.5h.8v-.8h.8l.7-1.5 6.2-6.2 1.9-1.5 2.7-3z"/><path fill="#31100c" d="M376.8 143.4h3.5l-.8 1.5-18 18-2 2-2.6 2.7-2.7.4-1.1 1.1h-.8l-.8 1.5-9.2 9.2-.7.8.3-2-1.5.9-2.7-.4-1.5-1.2.4-1.9 3-2.7 1.6-1.5.7.4-1.9 1.9-3 3 1.5 1.2 1.1.4.4-1.2h.8l.8-1.5 6.9-6.9h.7v-.8h.8l.4-.7 2.7.7v-.7h.7v-.8l2.7-.4 1.2-1.5v-.8l-1.2-.4v-4.2h.4l.4 3.5 17.6-17.7z"/><path fill="#8c2425" d="M276.7 117h1.2v1.5l-1.2.7 1.6 1.2-.4 5-.8 1.5v.8l3.5-.8 2.6.8 1.2 1.1v-.7l2-.8 3.4-.4v1.2h2.3v.7l1.9-1.1h3.8v.4l-3.8.7-15.7 15.7h-.8v-3.4l12.3-12.3h-3.5l-6.1 6.2-1.2 1.1h-.7l-.4 1.2h-.4v-3.9l1.9-2.3 2.7-2.3.4-.7-3.5.3-1.5 1.2V128H274l.4-1.2h.8v-.8h.7l.8-1.5h.8l-.4-3.8-2.7 3-3 2.7-1.6 1.6h-3.4l.7-1.6 3.9-3.4 1.9-2 2.3-2.6zm15.4 10.7"/><path fill="#363939" d="M398.7 346.3h8l2.4 1.2.4.4 3 .4 1.6 2.3 1.9 1.9 2.7 2.7 1.5 2.3-.4.7-5 .4-3.8.8-4.6.8-5.8 2.3h-.7v.7l-2 1.2-1.5-.4.8-2 2.7-1.8.4-.8 4.2-2.3 2.7-1.5 2.6-.4v-.8l2.7-.4v-.7l-1.9-.8-6.1-3-1.6-.8v-.8l-2.6-.4-2-.4z"/><path fill="#300e09" d="m308.6 129.2 3.4.4-.8 1.5-33 33-.3-1.1 1.5-1.6-2.3-.4 2-1.9 2.6-3h.8l.7-1.6 2.3-2.3h.8v-.7l2.7-2.3.4-.8h.7l.8-1.5 3-2.7 3.2-3.5h.7v-.8h.8v-.7l3-2.7 2.4-2.7h.7l.8-1.5 2.3-2z"/><path fill="#2d0f0a" d="M277.1 164.5h.4v7l-2 1.8-1.9 2-3.8 3.8-.8-1.6-2.6 2.3-3.5.4-1.1-.7 3.8-.4 10.7-10.8.4-.7-3.4.4-11.2 11-1.5-.3-2 1.1-3 .4-.8-.7 3.1-.4 10.8-10.8.3-.7h-3.8v.7h-.8l-.3 1.2h-.8v.8h-.8l-.7 1.5-6.6 6.5-1.1.8-3.5.7-2.7.4-1.1-.7 3.4-.4 10-10 .4-.8h.8l.4-.7v.7l.7.4-.7 1.2 2.6-2.3 1.2-.8h3l1.6.4v.8h-.8v1.1h-.7v1.2l1.5-.4.4-1.6 1.9-.3v-.8h4.6zm-7.3 12.3.4.7z"/><path fill="#290f0a" d="M209.2 128h3.4l-.7 1.6h-.8v.8h-.8v.7h-.7l-.8 1.6h-.8v.7h-.7v.8h-.8l-.4 1.1h-.7l-.4 1.2-1.6 1.5h-.7l-.8 1.6-2.3 1.9-.8 1.1-.3 3.5 1.5-1.6h.8v-.7l1.9-1.6 1.9-2.3 3-2.6 3.5-3.5 2.7-3 1.5-.8.8-1.6h3.8l-2.3 3.1-14.2 14.2h-.7l-.8 1.5-3 3.1-.4 3h-.4v-11l1.9-3.1 2-1.2-2 .4-.8.4.4-1.5 1.2-1.2h.7l.8-1.5 5-5z"/><path fill="#290e0a" d="m190 167.6.8.4v.7h.7l.8-1.1h1.2v.7h-.8l-.8 1.6h-.7l-.8 1.5-10 10-1.9 1.9-1.5 1.5h-.8l-.8 1.6-11.9 11.9-1.9 1.9-2.7 2.3v-4.2l1.6-1.6h.7v-.7l3.1-2.7 1.5-2h.8v-.7h.8v-.8l2.7-2.3 1.9-1.9 3.4-3.5.8-1.5h1.2l.3-1.1 3.1-2.7 2-2.3 2.6-2.3 2-2 1.8-1.9h.8z"/><path fill="#2f0e09" d="m267.9 114.2 3 .4v1.2h-.7v.7l-3 2.7-8.1 8-.4.9 3.4-.4 11.5-11.5 3.1.3-.4 1.6-2.3 1.9-1.1 1.5h-.8l-.8 1.6-3 3-2 2 3.5-.4 3.8-3.9h.8l.8-1.5 2.3-2v4.3l-1.6 1.5h-.7v.8l-2 1.2.4-1.6-1.9 1.2-.4.7-1.5.4h-4.2v-1.1l-.4-.8-3 2h-3.9l-.4-2h.8l.8-1.5h.7v-.8h.8l.4-1.5h-1.2v1.1l-4.2 3-1.2 2-4.6-.4.4-.7 3.9-.4z"/><path fill="#2a0f0b" d="M197.3 175.6h.8v3.9h-.8l-.8 1.5-3 2.7-2 1.9-1.9 2-5.7 6h-.8v.8l-3 2.7-3.5 3.8h-.8v.8l-2.3 2-.4.7h-.7l-.8 1.5h-.8v-1.5l-1.5 2-2.3 1.5-.8.3-1.9-.3.4-.8 2.7-.8v-.7l1.5-1.6h.8l.7-1.5 1.6-.4v-1.2h.7v-.7h.8v-.8h.8l.8-1.5 2.3-2.3h.7v-.8h.8v-.8h.8v-.7h.7l.8-1.6 1.5-1.5h.8v-.8h.8l.7-1.5 1.6-.8V186l3-2.7 3.5-3.5 1.9-.7.4-1.6 1.1-1.1h.8zM172 202.5l-.8 1.5.8.8.4-2.3z"/><path fill="#882929" d="m305.9 128 4.6.8v.4l-2 .4-1.9 2.3-3 2.7-2.7 3-1.5 1.6h-.8v.7h-.8v.8l-1.9 2-4.2 4.2-1.6 1.5h-.7l-.8 1.5-1.5 1.6h-.8v.7l-3 2.7-3.5 3.8-1.5 1.6h-.8v-3.5l26-26z"/><path fill="#862c2d" d="M310.9 129.2h1.5v1.2h1.1l.4-.8 7 2h1.9l1.5.7 3.8 1.5 5 1.2 3.5.3v.8h2.3l3.4 1.2 8 1.5 2 .8 6.5.7 2.3 1.6 1.2-.4v1.1l-5 5h-.4v-3.8l2-2.3-7-1.2-13.8-3-6.9-1.6-8.8-2.7-5.4-1.5h-2.3L304 142.2h-.8v-1.1h.8v-.8l1.5-.4V138l.8-.4v.8h.7v-.8l1.6-1.5h.7v-1.5h-1.1l-.4 1.1-2.7 2.3-.4.8h-.7l-.4 1.5-1.6 1.6H301v1.1l-2.3 2-2 2.2-2.2 2-1.6 1.9h-.7v.7l-2 1.2-3.8 4.2h-.8l-.3 1.5-1.2.8-1.1-.4 28.7-28.7.4-.8z"/><path fill="#691b1a" d="M186.2 167.6h3.8v.7l-3 2.7-1.2.4-.8 1.5-1.5 1.6h-.8l-.7 1.5-3.5 3.5-1.1 1.1h-1.2l-.8 2-4.2 4.2h-.8l-.7 1.5h-.8l-.8 1.5h-.7v.8h-.8v.8l-2 1.9-2.6 2.7h-.8v.7h-.7l-.4-1.5-1.2-.4 3.9-3.8h.7l.4-1.2h.8l.8-1.5 14.5-14.6 2-2z"/><path fill="#8b2627" d="m265.2 113 4.2.5 2 .7v1.6l.7.4.4-.4 2-.4.3.8-2 1.1-10.7 10.8h-3.4l.8-1.6 10-10h.7v-.7h.8v-1.2h-3.1l-13.4 13.5H251v-.8h.8l.7-1.5 1.2-.4.8-1.6z"/><path fill="#dfc8a5" d="M324 332.2h8.3l7.3 1.9 5.8 3 1.5 1.6v1.1h-3.8l-7.7-1.5-11.9-3-3.8-.8-.4-1.2z"/><path fill="#621a1a" d="M158.2 136.5h.4v3.8h-.8l-.8 1.6-1.9 1.9-1.5 1.5h-.8v.8h-.8l-.7 1.5-1.6.8v.8h-.7v.7h-.8v.8l-2 1.5-1 1.6h-.8v.7h-.8v.8h-.8l-.7 1.5-4.6 4.6h-.8l-.8 1.6-1.5 1.5h-.8v.8h-.8l-.7 1.5-.8.4v-2.3l.4-.4v-2.3l.8-.8h.7l2-1.9h.7l.8-1.5 1.1-.4.4-1.2h.8l.8-1.5 15.7-15.7.4-.8h.7v-.8z"/><path fill="#2a0e0a" d="M158.6 136.5h.3v4.6l-1.1 1.1h-.8l-.7 2.3 1.5-.3v1.1l-3 2.7-14.3 14.2-1.9 2-3.8 3.8h-3.9v-.8l2-2h.7v-.7l2.7-2.3 2-2 4.1-4.1.4-.8h.8v-.8h.8v-.7l1.9-2 1.1-1.1h.8v-.8h.8v-.7h.7v-.8l2-1.5.3-.8h.8v-.8l2-1.5 1.8-2 1.2-1.5h.8zM188 166.8l1.6.8-3.4.4-5 5h-.8l-.7 1.5L165 189l-1.6 1.9-3 2.7-1.6 1.1v-4.2l1.6-.8v-.7h.7l.4-1.2 3-2.7 2-2.3h.8v-.8h.7l.4-1.1 3.1-2.7 3.8-3.8 2-2 2.3-2.6h.7l.8-1.6h.8l-.4 1.2 1.9-.4 2-2z"/><path fill="#2c0e0a" d="M158.6 128.4h.3v4.6l-3.4 3.1-2.7 3.8-1.2.4 1.2 1.2.8-1.6 3-3h.8v.7h-.8v.8h-.7l-.8 1.5-15.7 15.8-1.6 1.9-3 2.7-2.3 1.9.3-2.7 2-4.2h1.1v-.8h.8l.8-1.5 1.5-.8v-.7h.8l.7-1.6h.8l.8-1.5 4.6-4.6h.7v-.8h.8l.8-1.5 4.6-4.6h.7l.8-1.6 3-2.6zm-7.3 12.7.3.8z"/><path fill="#852425" d="m253 109.6 5.3.4 1.2.8v1.1l3.8-.3 1.5.7-1.5.4-1.5.4-8.5 8.4h-.8l-.7 1.6-2 1.5-1.9 2h-.7l-.8 1.5h-3l.7-1.6 8.8-8.8 2-2 3.8-3.8.4-.7h-3.5l-4.2 4.2-2 2.3H248v.8l-1.1-.4h-.8l-.7.4.3-1.6 3.1-2.7 3-3.4z"/><path fill="#2f110c" d="M383.4 144.2h4.2l-2.3 2.7-16.1 16-.4.8h-.8v.8l-2.7 2.3-.3.8h-4.3l2.3-2.7 5.8-5.8 1.5-1.9 3.1-2.7 9.2-9.2z"/><path fill="#942e31" d="M356.9 169.5h.4v3.8l-.4.8h-.8l.8 1.5 4.2 1.6 2.7 1.5.8 1.1 1.1.4 2 2 2.2 1.5v.7h.8v.8l1.5.8 3.1 3 1.5 1.2.4 2.3-1.9-2-3.4-3.7-5.8-4.7-5.7-3.4-2.3-.8-.8 10.8-.4 3.4-1.2-.4v-.7h-.7l.7-1.6.8-3v-1.6l-3.4 3.5-1.6-.8-.4-1.5 2.3-2 2-2.2h.7v-.8h.8v-4.2h-.8l-.7 1.5-3.1 3h-.8l-.7 1.6-2 2-1.5-.8-.8-.4.8-1.6 9.2-9.2zm-.4 5.4"/><path fill="#2f0c0c" d="M73.4 247.4h.8l-.4 1.1H73v.8l-2 1.9-4.1 4.6-2.7 3.5-1.2 1.9h-.7l-.8 2.3 5.4-1.6 8.4-1.1h15l6.1 1.5 7.3 2 8.8 3.8 3.5 1.9 4.2 2.7 2.3 2 2 1 3.7 3.1 3.9 3.9v.7h-.8l-2.3-2.7-1.1-.3-1.2-2-3.8-2.3-1.6-1.1v-.8l-1.5-.4v-.7l-2.3-.8-3.5-1.5-1.5-.8-1.5-1.5-4.6-2-2.3-.7-1.6-.8-3.4-.8-4.2-1.1-8.9-1.2h-9.5l-6.2 1.2-5 .8-.7.3h-3.9l-.4-2.3 2.3-3 1.6-2.7 2.3-1.2.4-.7h.7l.8-1.6 1.5-2.3h1.2l.7-1.5z"/><path fill="#32100a" d="M391 144.5h3.5l-.8 1.6-6.1 6.1-2 2-7.2 7.2-2 2-3.4 3.4-.4.8-4.2.4.8-1.6 19.5-19.5.4-.8h.8v-.8z"/><path fill="#882827" d="M301.7 127.3h3.8l.4.8-3.5.3-3.4 3.1-2 2-2.3 2.6-3 2.7-2.7 2.7-2 1.9-6.4 6.5-2 2-1.1.7v-3.8l8-8h.8v-.9l3-2.6 2.8-3.1 5-5 1.1-.8h1.2v.8l1.5-.8z"/><path fill="#651f1d" d="m197.7 187.1 1.1.4-.7 1.6-2 1.9h2.4l.3 4.2-2.6 3.4 1.5.4-.4.8h-.8v.8l-6.1 3-1.2-.4 1.2-1.1h.8l.7-1.5 5.8-5.8.4-3.4-3.1 2.6-7.3 7.3h-.8l-.3 1.2h-.8l-.8 1.5-2.7 2.7h-4.2l2-2 1.9-2.2 3-2.7 5.4-5.4h.8v-.7h.7l.8-1.6 1.5-.7.8-1.6z"/><path fill="#350d0b" d="M121 163h.7l-.7 4.2-1.6 8-.4 2-.3 5.3V196l.7 9.6 2.7 12.6 1.5 5.4 2.7 8 2 5 2.6 5.8 2.3 4.6-.4 1.1-1.5-2.3v-.7h-.8l-1.5-3.9v-1.1h-.8l-1.5-3.9-1.1-3.4-1.6-3.8-1.1-3.9h-.8l-.8-4.2-.3-.4-.8-4.6-.8-1.5-.7-5.8-.4-1.1-.8-6.6-.4-15 .4-8.4 1.2-6 1.1-4z"/><path fill="#38100b" d="M396.4 145h3.5l3.4.7-1.5.4h-4.6l-.8 3.8.8.4.4 4.2-2 2-1.5 1.5-.8-.4 2.7-2.7v-3l-2.3 1.9-1.9 1.9-1.5 1.9h-.8v.8h-.8l-.7 1.5-4.6 4.6h-.8l-.8 1.5-1.9 1.6h-3.4l.7-1.6 18.8-18.8z"/><path fill="#2b100b" d="M197.7 183h.8v4.1l-3.1 2.7-2 2-1.5 1.9h-.7v.7l-3.1 2.7-5.4 5.4h-.7l-.8 1.5-2 2-.7-.4.4-.8-1.5.8-2 1.5-.3.8h-3.5l-.4-.8 3-.4 5-5 2-1.9 1.5-2 2.3-1.8 2-2 1-1.5h.9v-.8l1.5-1.5h.8l.7-1.5 3.1-2.7z"/><path fill="#8c2020" d="m136 227.8 2.2.8-.4 1.5-.3 2 .3 1.5 1.6-.4v-.8h.7l.8 1.2v1.5h-1.1v2l2.6 4.5.8 2.3h1.2v-1.1l1.1.3v1.6h-.8l.4 1.5.4-1.1h.8l-.8 2.3-2.3 3.8-3.4 6.5-1.6-1.5-1.5-2.3-.4-2.3h.8v.8l.7-.4.8-1.6 1.5-.7 2-2.3-.4-2.7-3.9-7.3-1.5-3.8-1.5-4.3v-.7z"/><path fill="#353939" d="m443.2 388.6.4 1.1 1.5.8 2 1.9 3.4 1.5h5.4l.4 1.6-2.3 3-.4 1.2-2.7 1.5-3 .4h-3.5l-.4-8.8-.8-2.7z"/><path fill="#31100c" d="M356.1 169.1h.8v3.8l-10 10-.4.8 2.3.7 2.7-3 3.1-2.7 1.5-2h.8v4.3h-.8v.8l-1.9 1.5-2.3 2.7h-.8l1.2 1.9v.8l.8.4-1.6-.4-1.1-1.2v-2.3l-3 .4-.5-1.2-1.1-.3v-2l-1.2.4-2.7-1.1.4-.8 2.3.4 3.5-3.8 5.7-5.4z"/><path fill="#872c2c" d="M316.6 133h.4v3.9l-7.7 7.6h-.7v.8h-.8l-.8 1.6-7.6 7.6h-.8l-.4-1.5h-.8l-.3 1.1h-.8l-.8 1.6-1.5 1.9h-1.2l-.4 1.5h-.7l-.4 1.2-2.3 1.9-.4-1.2 2-1.9h.7l.8-1.5z"/><path fill="#2b0f0a" d="M153.2 206.7h3.4l-.7 1.5-1.6 2h-.7l-.8 1.5-1.5 1.5h-.8v.8h-.8v.8l-1.9 1.9-3.4 3.4-2 2-4.2 4.2-1.5.7-.8-1.9.4-1.5 2-2 12.2-12.2h.8l.7-1.5 1.2-.4z"/><path fill="#340c0b" d="m358 177.5 2.4.8 6 3.8 6.2 5 3.5 3.9 4.6 7.3 3.4 7.6v1.2h3.1l-.8 1.5-1.1.4v.8l3.4-.8 2.3-2h3.9l-1.2 1.2H391l-1.1 1.2h-.8l-.4 1.1h-3l-1.2-.3-.4-2.7h-.7l-1.2-3.1v-1.5h-.7v-1.6h-.8l-1.2-2.3-2.3-3.8-1.1-1.5v-.8h-.8l-.8-1.2v-1.9h-.7v-.7l-1.6-.8-1.9-1.5v-.8l-1.9-.8v-.8l-2-.7-.3-.8-2-.8-2.6-1.5v-.8l-1.5.4-.8-.4v5l-1.1 2.7-.4 4.2-.8.4v-3.4l.8-10.8zm-1.5 7h.4l-.4 4.2-1.5 2.3h.7l1.2 1.5-.8.4-1.5-1.5v-2l1.1-1.5h-1.1l-.4 1.2h-.8l.4-2z"/><path fill="#310f0a" d="M316.2 145v1l-.4 1.6-1.5.8.4.8-1.2.3-.7-.3-.8 2.3 1.5-.8 1.2-1.2.8.4-6.2 6.2-2.7 3-4.6 4.6h-.7l-.8 1.6-2.7 2.3H294l2.3-2.7z"/><path fill="#2b0d09" d="M196.2 108.5h2.3l-.4 1.5h-.8v.8h-.8l-.7 1.5h-.8v.8h-.8v.8l-3 2.6-10.8 10.8-.7-1.2-1.6.8-1.9 2h-3l-.8-.8 3.4-.4 2.3-2.3h.8l.8-1.6 1.1-.4.8-1.5 4.2-4.2h.8l.7-1.5 6.2-6.2 1.1-1.1z"/><path fill="#983638" d="M125.6 153h.7l-1.1 3.8-.4.4-.4 2.7h-.8l-.7 4.6-.4.4-.8 4.2h-.7l-1.2 8.4-.4 11.2v9.6l.4 5.3.8 2 .7 6.9 1.6 5.7.4.4.7 4.2 2 6.2v.7h.7l.8 2 1.1 4.5 2.3 4.6 2.3 5-.4.8-1.9-3.5-2.7-6-1.9-4.7-2.7-7.3-1.1-4.6-1.5-5.4-2-9.5-.7-9.6v-13.5l.4-5.3 1.5-8.9 2.3-7.6z"/><path fill="#340f0a" d="m393 158 .3.7-.7 2.3.7.4v-.7h.8l.8-1.6.7-.7h1.2v7.6l2.7.8 1.5.4.4 1.1-2 3.1 1.6-1.5h.8v-.8h.8v-.8h1.1v-1.1l2.7-.8h2v1.2h-4l-.7 1.5h-.8v.8h-.7l-.8 1.5-4.2 4.2h-.8v-3.8l2.7-2.7h.8v-.8h.7v-.7l-4.2.4-.4-.8-.7.4h-3.5l2.3-2.7 2-2v-3.4h-.8l-.8 1.5-4.2 4.3-2 1.5-.3.8H384v-.8h.8l.8-1.5 3-2.7 2.7-3z"/><path fill="#2a0f0b" d="m174.3 167.6.4.7 2.7-.7.7.7-1.5 1.6h-.8v.7h-.7l-.8 1.6-14.6 14.6h-.8v-3.9l1.6-1.9 3-2.7 10-10h.8z"/><path fill="#8d2d2c" d="m394.5 144.5 2 .4v2.3l-19.7 19.6-.7-.4 5-5-.4-.7-2.7 2.3h-.8l-.4 1.5-1.9 2-.4.7-1.9.4.8-1.6 3.8-3.8h.8l.8-1.5 7.6-7.7h.8l.8-1.5 6.1-6.2z"/><path fill="#8d2c2b" d="m372.2 142.6 5.8.4-2 1.5h-.7l-.8 1.6-17.2 17.2h-.4v-3.8l10.4-10.3h.7l.8-1.6 3.8-3.8h.8v-.8z"/><path fill="#912b2a" d="M435.2 168h.7v2.6l-1.5 2.3-18.4 18.5-2.7 1.5-.8.8-.4-1.6 3.1-3h.8v-.8h.7l.4-1.5h1.2v-.8h.8l.7-1.6 2-1.1.7.4v-2l1.2-.3.3-2.3 3.9-3.9 1.9-1.5 2.7-3z"/><path fill="#611c1c" d="m192.7 109.3 1.1.3-2.3 2.7-4.6 4.6-1.9 2-3.8 3.8-2.3 2.7-3 2.7h-3.5v-.8l3-2.7 2-2.3h.7l.8-1.5 3.8-3.9 1.6-1.5h.7l.8-2h.8v-.7l1.5-1.1h.8v-.8l-.8-.4 3.8-.8z"/><path fill="#2d0d09" d="M197.3 113.9h1.2v3.4l-4.3 4.2h-.7l-.4 1.2-2.3 1.9-.4.8h-.8v.7h-.7l-.8 1.6h3l3.5-3.1.4-.8h.8v-.7h.7v-.8h.8v-1.2h.8v4.3h-.8v.7h-.8l-.3 1.2-.4-1.2 1.1-.3v-2.4l-1.9 2-2.7 2.7-1.1.7-3.5.4-1.1-.8v-1.1l-3.9 1.9-2.7-.4-.3-.7 3.8-.4 1.5-.8.8-1.5h.8v-.8h.7v-.8h.8l.8-1.5 1.5-1.5h.8l.7-1.6h.8v-.7h.8v-.8h.7v-.8h.8v-.7l1.5-1.6h.8zm-10.4 12.6-.3.8.7.8z"/><path fill="#2c0e0a" d="M158.6 144.2h.3v4.6L157 151l-.4 1.1 1.2.4-4.2 4.6-3.1 2.7-1.5 1.5h-.8l-.8 2-4.6 4.2h-3.4l1.5-2.3 3-3.1h.8l.8-1.5 11.1-11.2h.8l.4-1.1h.8z"/><path fill="#621b1a" d="M196.5 108.1h2.3v2l-1.1 1.5h-.8v1.5l1.6.4-1.2.4v.7h-.8l-.7 1.6h-.8v.7h-.8v.8h-.7v.8h-.8v.7l-3 2.7-1.6 2h-.8v.7h-.7v.8l-3.1 2.7H180l.8-1.6 12.7-12.6h.7v-.8h.8v-.8l1.5-1.5h.8v-.8h.8l.4-1.5h-2z"/><path fill="#2f0e09" d="M286.3 128.4h3.8l-2.3 2.7-10 10-.3 3.4 1.9-1.5 2-1.1 2.6-2.7h.8l.7-1.6 2-1.1 1.1-2 1.5-.7.8-1.5.8.4-1.2 2.6-.7.4-.4 1.2h-.8v.7h-.8v.8h-.7v.8l-3 2.7-1.2.3v.8h-.8l-.4 1.2-1.1-.4-.8.4v1.1l-2.7.4v-5l2.7-3 1.1-.4v-.8l-1.5-.4v.8h-.8l-.3.7v-1.5h.7l.4-1.1 3-2.7zm6.5 2.7.8.4v.8h-2v-.8z"/><path fill="#353838" d="M268.7 307.6h8.8l7.3 2 3 .3h7l6-1.5h1.2l-.3 1.5-6.6 1.5-2.7.4h-11.8l-5-.7-7-2.7z"/><path fill="#270d0a" d="M109 220.5h1.6l1.1 2.7.4 4.2h.8l.4 1.2-.4.7h.8l1.1 3.9 1.2 3.4.7 3 2.3 5.5v1.1l1.6.8 1.1 3 .4.4v2l1.5.7 1.2 3.5 1.1.4.8 3.4 1.2.4 3 5.4.4 1.5h.8v1.2h.7l1.2 1.9 1.2 1.5-.4 5-.8 2.3-.4 3-.8.4v-3.4l.8-5.4V272l-3.8-5.3-.4-1.6h-.8l-1.9-3.4-4.6-8-5.4-10.8-2.3-6.2-1.5-4.6-2.7-8.8v-2l-1.1-.3z"/><path fill="#2b100a" d="m159 213.6.7.4v3.4l-3.8 3.9-2.7 3-1.2 1.2 1.2.4.7-1.6 2.7-2.6 1.6-1.2v1.5l-1.6.4-.7 1.6-4.6 4.6h-.8l-.8 1.5-6.9 7-.7-.5-.8-1.5v-1.2h.8l.7-1.5h1.2l.7-1.5.8-1.2h.8l.7-1.5 1.6-1.5h.7l.8-1.6 3.5-3.4h.7l.8-1.6 2-1.5.3-.8h.8v-.7h.7z"/><path fill="#8c2b2c" d="M316.6 156.4h.4v3.5l-2.7 3-4.2 4.3h-.8v.8l3.5-.4 3-2.7 1.2-.8v3.9h2l-.8.3-.8 2-3-.4-6.2-1.6-2.7-.3v-.8l3-2.7z"/><path fill="#38100e" d="m308.2 160.7.4 1.1-1.6 1.5v1.2h-.7l-.4.8h-1.2l-.7 1.9-1.2 1.1.4 3.1 1.1 2.7 1.2 5-.8.7h-9.2l-1.1-.3h-12.7l-2.3.3h-1.5v-.7h-.8v-1.2l-4.2 2h-2.3v-1.2l3.4-.4 2.7-2.7h1.2v2.7h21.5l5 .8-1.6-5.4-2-4.6v-2l2-1z"/><path fill="#380d09" d="m422.5 169.1.8.4-9.2 9.2-2 2-6 6-1.6 2.4h1.9l.8-2 1.5-.3.8-1.6 1.9-1.9 2.7-2.7h.7v.8h-.7v.7h-.8v.8h-.8v.8h-.7v.7l-2 1.6-1.9 2.3h-.7l-.8 1.5h-.8l-.7 1.6-2 1.9-1.9 1.9h-.7l-.8 1.5-2.7 2.7h-.4v-4.2z"/><path fill="#8a2e2d" d="m432.9 178 1.1.3-2.7 2.7-.7 1.1h-.8v.8l-3 2.7-3.5 3.5h-.8l-.8 1.5-1.9 2-1.5 1.8h-.8l.4 1.2-2 1.1h1.2l2-1.9.7.4-2.7 3-8.8 8.9-3.4-.4v-.8l3-2.7 12.7-12.6.4-.8h.7l.8-1.5 2-1.5 1.8-2.4h.8v-.7l3-2.7z"/><path fill="#2c0f0b" d="M145.5 206.7h3.8l-.3 1.2-2 1.5-1.9 1.9-6.1 6.1-.4.8h-.8v.8h-.7l-.8 1.5-1.1.4v.8H134l-.8-2.7.4-.8h.8v-.8h.8v-.7h.7v-.8l2-2 1-.3v-.8h.9l.7-1.5h.8v-.8h.8v-.7l1.5-1.6h.8v-.7z"/><path fill="#641918" d="m183.1 112.3.4.8h-1.2l-.7 1.5-10 10h-.8v.8h-.7l-.8 1.5-1.2 1.2-3-.4.7-1.6h.8v-.7h.8l.7-2h.8v-.7l1.5-.4v-.8h.8l.8-1.9 1.9-2 1.5-1.4-.7-.4 3-1.6 2.7-1.1z"/><path fill="#7f2928" d="M276.7 117h1.2v1.5l-1.2.7 1.6 1.2-.4 5-.8 1.5v.8l3.5-.8 2.6.8-.3 1.5-2 2-2.3 2.2v1.6l.8.3-.4.8h-.7l-.4 1.2h-.4v-3.9l1.9-2.3 2.7-2.3.4-.7-3.5.3-1.5 1.2V128H274l.4-1.2h.8v-.8h.7l.8-1.5h.8l-.4-3.8-2.7 3-3 2.7-1.6 1.6h-3.4l.7-1.6 3.9-3.4 1.9-2 2.3-2.6z"/><path fill="#8e2b2b" d="M436 187.1h.7l.4 3.9-2 3v.8l.8.4-3 2.7-8.9 8.8h-3.8l2.3-2.7 12.7-12.6h.7z"/><path fill="#340d09" d="m249.5 109.3 3.4.3-.4 1.2-1.9 2-1.1.3-.8 1.5-2.3 2.3h-.8l-.3 1.2-1.2 1.1h-.8v.8h-.7l-.8 1.5-3 3.1h-.8v-4.2l3-2.7 1.6-1.5h.7l.8-1.6 1.5-1.5h.8l.8-1.5z"/><path fill="#ad4041" d="m366.5 133 8.4.4 10.4.8 12.7 1.1 12.6 2.3 8 2 3.9 1.9-.4.7-3.4-1.1-2.3.4v-.8h-1.2v-1.1l-8.8-1.6-16.5-1.9-4.2-.4-.4-.4-16.1-1.1-2.7-.4z"/><path fill="#8d2526" d="m309.3 134.2.4 1.1-.4.8h-.7l-.8 1.5h-.8v.8l-1.1-.4-.4 2-1.5.3v.8h-.8l-.4 2-.4.7h-.7l-.8 1.5-7.3 7.3h-2l-.7 2h-.8v.7l-3 2-.4 1.4h-.8l-.7 1.6-1.2.4-.4 1.1-1.1-.4-.4-1.5 3-1.5.4-1.2 2-2 3.4-3.4h1.2v-.7h.7l.4-1.2h.8l.4-1.1 1.5-1.6h.8l.7-1.5h.8l.8-1.5h.7l.4-1.2h.8V142l2-1.2 1-1.9h.8l.8-1.5 2.3-2 .4-.7z"/><path fill="#2c120c" d="M376.8 144.2h1.6v1.9l-14.2 14.2-2 1.1-1.5 1.6-1.5-.4.8-1.6 3.8-3.8 1.2-1.1h.7v-.8h.8l.8-1.5 7.2-7.3h.8l.8-1.6z"/><path fill="#691819" d="m223 135.7.8.4-11.2 11.1h-.7l-.8 1.6h-.8v.7l-1.9 2-1.1.3-.8 1.6-3.4 3.4h-.8l-.4 1.2h-.8v.7h-.7l-.8 1.6-.8.4.4-2.3 3-3.1 2.4-2 1.5-2.6 2-2 .7-1h.8v-.8h.7v-.8h.8v-.8h.8v-.8l1.1-1.1 2-.4.7-1.5 2.7-2.7 2-2h1.5z"/><path fill="#2c0c08" d="M232.2 128h3.9v.8l-2 2h-.7v.7h-.8v.8l-3 2.7-4.3 4.2-1.1-.8-1.6 1.5-1.5.4-1.5 2h-.8v.7h-.8v.8h-.7v.7h-.8v.8h-.8v.8l-1.5 1.5h-.8v.8l-1.5.4 2.3-2.7z"/><path fill="#903130" d="M314.7 130.4h2.3l4.6 1.1 1.2.4 5 1.5 2.2.8 3.1.8 3.5.3v.8h2.3l3.4 1.2 8 1.5 2 .8 6.5.7 2.3 1.6 1.2-.4v1.1l-5 5h-.4v-3.8l2-2.3-7-1.2-13.8-3-6.9-1.6-8.8-2.7-5.4-1.5-2.3-.8z"/><path fill="#892d2d" d="M427.9 167.6h3.8v.7l-3 2.7-11.2 11.1-1.1-.3v-.8h1.5l-.8-1.2-.4.8-1.9.4 2.3-2.7 10-10h.8z"/><path fill="#343838" d="M331.6 299.2h.7l1.2 3.4.8 3.8v2.7h-.8l-.4-1.9-8.4 3-3.1-.3v-2l3.8-.7 1.2-1.1h1.1v-.8h.8l.8-1.5 1.9-3.1z"/><path fill="#6a1b19" d="m195 183.3.4 1.1-1.2 2h-.7v.7l-2 1.6h-.7l-.8 2.7-1.1.3v.8h-.8l-.8 1.5-1.9 2-2.7 2.3-2.3 2.6h-.7l-.4 1.2-1.6.4-1.9 1.9-1.5-.8 1.5-1.5h.8v-.8h.8l.7-1.5h.8l.8-1.5h.7l.8-1.6h.8l.7-1.5 1.6-1.5h.7l.8-1.6 1.5-1.5h.8v-.8l1.5.4v-.8l-.7-.3 1.9-2 3-3z"/><path fill="#28100b" d="m159.3 220.1.8 1.2v3l-3.5 3.9-1.9 2.3-1.9 2-1.5 1-.8 2 1.5-1.6h.8l.4-1.1h.7v-.8l.8-.4.8-1.1 3-2.3.4.8h-.7l-.4 1.1-3 2.7-3.5 3.8-3.1 2.7-2.3 2.3-1.2-.4-.3-2.7 3-2.6 1.2-1.6h.7l.8-1.5 2-.8v-.7h.7l.8-1.6h.7l.8-1.9 3-3h.8v-4.3z"/><path fill="#310808" d="M178.5 103.1h1.2v.8l-8.1 3.4-6.1 3.1-3.9 2.3-6.1 4.2-5 3.9-1.5 1.5h-.8v.8l-3 2.7-5.4 5.3-3.1 3.9-2.7 3.4-.4-.8.8-1.5h.8l.7-2.3h.8v-.8h.8v-.7h.7l.8-1.6 2.3-3h.8v-.8l1.9-1.1 1.5-2 2-1.9 3-2.7 2.3-1.5 1.1-1.5h1.2v-.8l4.2-2.3 3.9-3 2.6-1.2 2.7-2 4.6-1.1.4-1.1z"/><path fill="#260f0a" d="M197.3 191.4h.8v3.4l-6.6 6.5-.3.8h-.8v.8h-1.2v-.8l-1.5.8-1.1.3-2.7 3.5-2 1.2h-3.4v-1.2l3.8-.4 3.1-3 1.5-2 3.1-2.7z"/><path fill="#631d1c" d="M198 121.5h.5l.7 5.4v2l.4-1.6h.8v.8h4.6v.7l1.1-.4.4.8 2-1.5 2.6-.4 1.2.8-3.1.3-5 4.6-2.7 3.1-3 2.3v-3.8l5.7-5.8h-3l-1.2.4v.8l-1.5.7v-2.6h-3.1v-.8l1.1-1.2h.8v-.7h.8z"/><path fill="#390a0a" d="m454.3 173.7.8.8.4 2.7v14.5l-.8 4.6h-.7v4.3l-.8 1.1-1.2 3.9-1.9 4.6-.7 2.3-2.7 4.6-1.2 2.6-2.7 4.6h-.7l-.8 3.5-1.1 1.2h-.8l-.8 1.5-1.9 2 .8-2 3.8-5.8 3.8-6.9 3.1-6.1 2-4.2 2.6-8 1.5-8.1.4-3.1V179z"/><path fill="#7e2927" d="M265.2 167.6h3.8l-.7 1.5-10.4 10.4h-3.8l.4-1.2 3-2.7 4.6-4.6.4-.7h.8v-.8l1.1-1.2h.8z"/><path fill="#363a3a" d="M343.5 304.5h1.1v4.3l-1.9 1.5h-.8l-.3 1.1-2 .4-.3 1.2-2.7 1.5h-1.2l-1.1-3v-2l.7 1.2 2.7-2.3 3.5-2z"/><path fill="#762625" d="M257.5 167.6h3.9v.7h-.8l-.8 1.6-9.6 9.6h-3.4l.8-1.6 1.5-1.9 3-2.7 3.9-3.8.8-1.2h.7z"/><path fill="#2d0e09" d="M157.4 213.2h.8v.8h-.8l-.4 1.1h-.7l-.8 1.6L140 232h-.7l-.8-3 1.5-.8v-.8l1.6-1.5h.7l.8-1.6 6.1-6 1.6-.5v1.2l-2.7 2.3-.8 1.1h-.7l-.8 2-1.5 1.5 2.6-2 .8-1h.8v-.9l1.9-1.9 2-1.5.3-.8h.8l.3-1.1 2.7-2.3zM143.6 226l.8.8v-.8zm0 .8"/><path fill="#2c0f0a" d="M238.4 150h.3v4.1l-1.1 1.6h-.8l-.4 1.9h.8l-.4 1.5-2.3 2-2.7 3-1.1.4v.8l-2 1.9-.3.4h-3.9l1.6-2.3 10-10 1.9-1.5zm-2.7 7.6-.4 1.5 1.5-1.1z"/><path fill="#82292a" d="M273.3 167.6h3.4l-.8 1.5-10.3 10.4H262l.8-1.6z"/><path fill="#6c2322" d="M241.8 167.6h4.2v.7l-3 2.7-2 2h-.7l-.8 1.5h-.8l-.3 5-10 .7-9.2 2.3-3.9 1.6-3.8 1.1-1.5-.4 3.4-1.1 2-1.2 4.2-1.1 5.7-1.6 7.3-1.1.8-.4 3.4.4.4-3.5.8-1.1h.7l.4-1.2.8-.3.4-1.2h-1.6l.8-1.5h.8v-.8z"/><path fill="#752425" d="M249.9 167.6h3.8v.7l-3 2.7-2.8 2.7-1.9 2.3-3 2.7-.4.4H239l.8-1.6z"/><path fill="#8d2b2a" d="M364.6 141.9h3.8l1.5.3-.7 1.6-4.6 4.6h-.8v.8l-1.5 1.5h-.8v.8L360 153h-.8v.8h-.8v.7l-1.5.8v-3.5l8-8 .4-.8h.8v-.8z"/><path fill="#611d1c" d="M158.2 221.3h.7v3.4l-3 2.7-1.6 2.3-1.5 1.6h-.8v.7l-2.3 1.6-1.5 1.5-.8-.8.8-.4-.8-.3-1.9 1.5-.4.8-1.1-.4 6.1-6.2 2-1.9 4.2-4.2 1.1-1.2h.8z"/><path fill="#852f2d" d="M316.6 140.7h.4v3.8l-6.1 6.2v-1.2l.3-1.5h-1.1l-.8 2-1.1.3-.4 1.2-3 2.6-2 2-2 1.9-2.6 3-2 .8v1.2h-.7l-.8 1.5-1.1.4v-1.2h.8l.3-1.1h.8l.8-1.6 1.9-1.9h.8v-.7l1.9-1.6 2.7-3z"/><path fill="#3a3d3f" d="M221 392.4h.5v5l-1.6 3.8-1.5 2.3-2.7 2.7h-.8l-1.5-7v-1.8l7.3.4z"/><path fill="#370c08" d="M156.6 128.4h1.6v.8l-2 1.5-1.9 2-2.7 2.6-1.9 2.3-3 2.7-5 5-1.6 1.6.4-2 3-3.8.9-1.2h.7l.8-1.9 4.6-5 3-3h.8l.4-1.2z"/><path fill="#2b120c" d="m414.8 170.6 1.2.4-.4 1.6-9.2 9.2-1.2-.4-.7 1.5h-1.2l-.7 2-1.2 1h-.8l-.7 1.6-1.6 1.6h-1.1l.4-2 11.5-11.5 2.3-.7v-.8h.7l.4-1.2 1.2-1.1h.7z"/><path fill="#030505" d="M215.3 418.5h52.2v.7l-51.8.4-.8.4h-2.3l.4-.8z"/><path fill="#2f120c" d="m391.4 153 .8.4v1.1h-.8v.8h-.7v.8h-.8v.7h-.8v.8H388v1.5l-1.6 1.2-.7.4v.7h-.8v.8l-2.3 2-.8 1.8-1.9 1.6h-3.4l.7-1.6 9.2-9.2 1.6-.7h1.1l.8-2h.8v-.7z"/><path fill="#8a3130" d="M387.2 144.5h.8l-.8 2h-1.1v1.1h-.8v.8h-.8l-.7 1.5-3.1 2.7-1.5 1.5-.8.4-.4 1.2-2 1.5-.3.8 2-1.2h.7v-.7l1.9-1.6 1.2-1.9h.7l.8-1.5 1.5-1.6h1.2l-.8 1.6-13.8 13.8v-1.2l3-3-.3-.8h-.8l-.4 1.1-1.5.4-.4 1.2h-.8l-.3 1.1h-.8l.8-1.5zM375.3 158v1.1h.8l-.4-1.1z"/><path fill="#8e2524" d="M380.3 143.8h10.4l3 .4v.3l-2.7.4-1.1.4v.8h-.8l-.7 1.5-2.7 2.3-1.6.4-1.9 2.3h-.7l-.4 1.2-2 2.3h-.7v.7l-1.6 1.2h-1.1l.4-1.2h.7l.4-1.1h.8l.4-1.6 1.9-.7.8-1.6 3-2.6.4-.8h.8v-.8h.8v-1.1l1.1-.4.4-1.6h-5.4v.8l-1.5.4v.8h-.8l-.7 1.9-1.2.4-1.2 1.9-1.5.8v-.8h.8l.4-2.3 1.1-1.2h.8v-.7l1.5-.8zm-5 14.2.8.4v.7h-.8z"/><path fill="#45120f" d="M434.8 203.2h.7v4.7l1.2-.8h3l-.7 3.4-3 5.8-5.4 8.8-.4-1.5 2.3-3.5.4-1.1h.7v-1.2h.8l.8-6.9.7-1.1h.8v-1.2l-1.5-.4-.8-1.9-1.5.8-.8.8h-3l-1.2-.8 3.4-.4z"/><path fill="#872d2c" d="M346.2 167.6h3.8v.7h-.8v.8l-3 2.7-5 5-1.6 1.9-1.9-.4-1.1-1.1 4.2-4.3h.8l.7-1.5 1.6-.8.7-1.5 1.6-.8z"/><path fill="#953639" d="m162 112 1.5.3h-.7v.8l-3.5 2-5 3.4h-.7l-.8 1.5-1.2.4v.7l-1.5.8-.4.8h-.7v.7l-2.3 1.6-3.5 3.4-1.1 2-1.2 1.5-1.5.8-.4.7h-.8l-.7 1.6-.8 1.5h-.8v1.1l-1.9 2-1.2 2.3h-.7l-.4 1.9h-.8l-.7 2.3-1.2 1.9-.4 2.3-1.1.8-.8 1.5-.4-1.1 3.1-6.2 2.3-3.8 3-4.6 4.3-5 2.7-3 5.7-5.8h.8v-.8l4.2-3.5 5.8-4.2z"/><path fill="#4c5052" d="m220.7 336.8.4 1.1h-.8v1.2l1.2-.4 1.5 2.7-1.5.7-.4 1.6-1.2 1.1-3 4.2-2.3-.3.3-2.4 3.1-5.7 2.3-3.5zm2.3 3.8"/><path fill="#732524" d="m262.1 111.6 2.3.3.4.8h-2.7l-8.8 8.8h-.8l-.7 1.6-2 1.5-1.9 2h-.7l-.8 1.5h-3l.7-1.6 8.8-8.8v1.1l-1.1 2.3 1.9-1.9h1.1v-.7h.8l.8-1.6h.8v-.7h.7v-.8h.8v-.8h.8v-.7h.7l.8-1.6z"/><path fill="#8c3233" d="m377.2 192.5 2 2 .3 1.5h.8l2.7 5.7 1.5 3.5v1.1h2.7l.8 1.6.7.3v-1.1l1.6-.8h5l.7-3.8.8-1.2h.8v-.7h.7v-.8l1.2-1.2h.8l.3-1.1 3.1-2.7 1.5-1.5.8.4-9.2 9.2-.4 5.3-.4.4h-2.3v-.7l.8-.4H391l-3 2.3h-2.7v-.8l2-2H384l-3.8-8.7-3-5z"/><path fill="#662322" d="M237.6 142.2h.4v3.9l-2.7 2.7h-.8l-.8 1.5-4.2 4.2-1.9 2-1.1 1h-.8v.9h-.8l.8-1.6h.8v-.7h.7v-1.2l1.6-1.1h.7l.8-1.6h.8l.3-1.5 3.1-2.7 1.2-.4v-.7h.7v-.8h.8v-2l-1.5.8v.8l-3.1 2.7-3.5 3.4-1.9 2.3-2.7 2.3-1.5 2.3-2 2-2.2 1.9-.4.7-2 1.2-1 .8.7-1.6 17.6-17.6.4-.8h.8v-.8h.8v-.7z"/><path fill="#973337" d="m109 221.7 1.2.3 2.3 7.7v1.2l-2.3.4.4-.8h.8l-.8-3.5-1.2-2.7v-.7l-1.9.7-3.8 1.6h-.8v.8l-3 1.9-3.5 1.5-5.4 3.8-2.3 2H88l-.8 1.5-1.5.8-1.6 1.5-1.9.8 2.3-2.7 5-3.9 5.8-4.2 6.9-4.2 6.1-3.5z"/><path fill="#6a6e6f" d="m375.3 253.5 1.5.4v.8L368 258l-6.9 4.2-4.2 3.5-4.6 4.6-2 2V268l.8 1.5 3.1-2.7 1.2-1.5h.7v-2h1.6l1.5-.3v-.8l5.8-3.8 1.5-1.2 3.8-1.5-.4-2z"/><path fill="#641f1e" d="M170.4 167.6h3.9v.7l-3 2.7-10 10-2.4 1.5.8-1.9 1.5-1.1h.8l.8-1.6 1.1-.4v-.7l1.6-1.2.3-1.5v-.4h-.7v.8l-2.7 2.3-2 1.9-.7.4.8-1.6 5.3-5.3h.8l.8-1.6 2.7-2.3z"/><path fill="#2a0e0b" d="M158.6 153h.3v3.4l-2.3 2.7v1.2l1.2.4-1.2 1.1h-.7l-.8 1.5-1.5.8-.8 1.6-1.2 1.1-.3.8H147l1.6-2.3 3.8-3.9h.8l.7-1.5 3.1-2.7.8-1.1h.8z"/><path fill="#5f201e" d="m193.5 183.3.3 1.1-3 3.1-1.2 2v.7l-1.5-.4v.8l-2.7 2.3-2 2-1.4 1.8-2.7 2.3-2 2.3h-.7v.8l-2 1.5 1.2.4 1.6-.8.7-1.5h.8l-.8 1.5-3.8 3.9h-3.9l.4-1.2 1.6-1.5h.7l.8-1.5h.8l.4-1.2h.7v-.8l2.7-2.3 2-2.3 1.8-1.9h.8v-.7l3-2.7 3.5-3.9h.8l.8-1.5 1.1-1.2h.8z"/><path fill="#842b2a" d="m291 138.4.7.4-2.7 2.7-2 1.9-6.4 6.5-2 2-1.1.7v-3.8l8-8 .8.3-.8 1.1h-.7l-.4 1.6 2-.8.3-1.1h1.1v-.8h.8v-.8h.8l.7-1.5z"/><path fill="#310f0a" d="M137.5 206.7h4.2l-.4 1.2-2.3 1.9-2 1.9-3.4 3.4-.8 1.6h-1.1l-.8-3.5 1.2-.4.7-1.5h.8l.8-1.5 1.5-1.6h.8v-.7h.8z"/><path fill="#802929" d="m270.2 116.2.8.3-1.2.4-.4 1.2h-.7v.7h-.8l-.4 1.6 2-.8 2.2-2.3.8.4-10.4 10.4h-3.4l.8-1.6 10-10z"/><path fill="#2a0e0a" d="M170 167.2h4.3v.4h-3.9l-.7 1.5-2.7 2.3-2 2-5 5-.3.7h-.8v-4.2l3.1-2.7 3.5-3.5 2.3.4zm-3 2.3"/><path fill="#772223" d="m246.4 108.5 2.7.4v1.1l-2.7 3-2.7 2.4-1.9 2-3 3h-.8v4.2l-.8-1.5.4-3.1 1.9-2 .8-1.5-2 .8.4-1.1h.8l.8-1.6 3-3h.8v-.8h.8v-.8h.7zm-5.7 7.3"/><path fill="#2a1411" d="m317.8 379.3 1.5.4.8 2h.7v-.8h1.2l.4-1.2 1.9.4-1.2.8 1.2 4.6v6.5l-.8 2-.7-1.6-1.6-6.5-1.9-3.9-1.1-1.5-1.6-.8z"/><path fill="#28120c" d="m302.4 136.5 1.6.4v.7h-.8v.8l-1.2.8-.3.7h-.8v.8h-.8v.8h-.7l-.8 1.5-2 2-1 1.9-3.2 3-1.9 1.2-1.9.4v-1.2l2-1.5.7-1.2h.8l.7-1.5 3.9-3.9.4-1.1h1.5l.8-1.5z"/><path fill="#842d2d" d="M294 127.7h3.8v.4l-3.8.7-15.7 15.7h-.8v-3.4l9.6-9.6.4 1.2-2.3 1.9-2 2.3-1.1.7.4 1.2 1.5-1.5h.8l.4-1.2 1.9-2h.7v-.7l2.7-2.3 1.2-1.5h.7v-.8z"/><path fill="#0c0c0c" d="m368.8 121.1 10.7.4 2.7.4 11.5.8 10 1.1 3 .8v.4l-8.7-.4-7-.8-11.5-.7-11.5-1.2z"/><path fill="#29120c" d="m297.4 149.2.8.3-.4 2-1.5.7-.8 1.6-1.9 1.9-1.2 1.9-1.9 2-3 2.2-1.2 1.2h-.8l-.7 1.5-2.3 2.3-1.2-.4 1.6-2.7 1.9-1.5.4-.8h.7l.4-1.1 4.2-3.5 2-1.9 1.1-2 2.7-2.6z"/><path fill="#23110c" d="m197 169.9.3 1.5-.4.8-1.1.4-2 2.3-2.3 1.9-.3.7h-.8v1.6l-2 1.1-2.6 2.3-2.7 3.1-1.5 1.2-.8-.4.4-1.2h.8l.3-1.5 2.7-2 1.2-1.5h.7l.4-2.3 3.1-3 2-.8 1.8-2z"/><path fill="#8f2726" d="M428.6 183.3h1.2l-.4 1.5-1.5 2.7-2 1.6-2.6 3-3.1 3-1.5.5-2 1.9-1.1-.4 2-2v-.7l1.8-1.9 1.2-.4.8-1.5 1.9-2z"/><path fill="#631f20" d="m86.8 260 7 .8 5.3 1.1v.8l3.8.4 3.9 2 5 1.8 3.4 2 2 .7v.8l2.2.8 1.2.7v.8l1.5.4v.7l2 .8.7 1.2-2.3-.8-3.5-2.7-3.4-2.3-9.2-4.2-4.2-1.6L94 262l-3.8-.7-14.2-.4v-.4z"/><path fill="#323736" d="M374.5 333.3h.8v.8l1.5.4 3.5 2.3 4.2 1.9 4.6 1.1-.4 1.2 2.3.7v.8l-3.4-.4-4.6-1.5-5-2.7-3.8-3.4z"/><path fill="#300c09" d="m207.7 155.7 1.1.4-1.5.7-.8 1.6-1.5 1.5h-.8l-.8 1.5h-.7l-.8 1.6-2.7 2.7h-.7l-.4 5.7-2 2.3h-.7l-.4 1.2h-.8v.7l-3 2.7-.8.4v-1.2h.8l.7-1.5h.8l.4-1.1 1.9-1.6.8-1.1h1.1v-2l-3.8 3.1-1.6 1.6-.7-.4 6.1-6.2.4-.7h-3.8l1.1-.8h2.3l1.2-2 1.5-1h.8v-.8h.7l.8-2 3.8-3.4z"/><path fill="#5e6160" d="m337 382.4 1.9.4-.4 1.1 1.1-.3.4 2.3h.8v.7l1.5.4v.8h.8v.8l1.5.3v1.2l1.2-.4.7.4.4 1.9 1.6.8 2.3 2.7 3.4 4.6v.7h.8V397l.4-2v-1h.7v10.3l-1.1-.4-2.3-4.2-4.2-5.4-3.1-3-4.2-3.5-4.3-4.2z"/><path fill="#891b18" d="m422.1 141.1 2.7.8 2.3 3 3.5 5 3 6.2v1.1l-1.9-.8-1.1-1.1-2.3-5-3.1-5-1.5-2.3v-.8h-1.2z"/><path fill="#6e201f" d="m246.4 117.3 1.2.4-.4.4.7.4v-.8h.8l-.8 1.5-2.3 2.3h-.7v.8l-2 2-1.1 1h-.8v.8h-.7l-.8 1.6-1.1-.4.7-2-1.1-.3 1.9-2 2.7-3h.7v-.8h.8l.4-1.1 1.5-.4z"/><path fill="#682525" d="M119.8 249.7h.8l4.2 8 2.3 3.9 1.5 2.3v1.1h.8l2.3 3.9 2.3 3-.4 5-.8 6.5h-.7l-2.7-3-2-2.3 1.6.7 2 2 .7.3.8-4.6.3-1.1v-2.7l-1.9-3.5-1.5-1.9v-.7l-1.2-.4-.3-1.6-.8-.4-.8-2.3-1.1-1.5v-.8h-.8l-1.1-2.6-2.3-4.3-1.2-2.3z"/><path fill="#822a2a" d="M436 195.2h.3v4.2l-2.3 3 2.3-.7.4.8v3.8l2.7.4v.4l-2.7.4-1.2.4v-4.7l-3 2.7-1.2 1.2H428l.4-1.2h.7v-.7h.8l.8-1.6 3.8-3.8 1.1-.8z"/><path fill="#272929" d="M300.9 425.8h13v.7h4.6l-1.1.8-2.3.4h-12.7l-6.1-.8v-.4z"/><path fill="#370c09" d="m435.5 159.1.8 1.6 1.2-.4 1.5 1.9v.8l-2.7 2.3-.4 2.7-3 2.6-2 2.3h-.7l-.8 1.6-4.6 4.2-3.8 3.8-.8-.4 4.6-4.6 2-2.3h.7v-.7l2-1.6.3-.7h.8v-.8l-2.7.4 2.3-2.7 1.5-.8v-.7H428l.4-.8h2.6l1.2.4v1.9h-1.2v1.5h1.2v-.7l2-1.6 1.4-4.2 1.6-1.1.4-1.6h-2z"/><path fill="#661d1e" d="m198 117.3.5 1.2-1.6 1.5 1.2 1.1h-.8v1.2h-.8v.8h-.7v.7h-.8l-.8 1.6-3 2.7h-3.5l1.2-2h.7v-.7h.8l.8-1.6h.7l.4-1.1 3-2.7zm-1.8 3"/><path fill="#7e302e" d="m356.9 177.2.8.3v7.7l-.8 7-1.2-.5v-.7h-.7l.7-1.6.8-3v-1.6l-3.4 3.5-1.6-.8-.4-1.5 2.3-2 2-2.2h.7v-.8h.8z"/><path fill="#1c1f20" d="M437.8 413.1h2v.8l4.2.4v.3l-13.4.8h-6.2l-1.5-.4-5-.4.4-.7z"/><path fill="#2d120c" d="m309.3 137.3 1.2.3-1.2.4v2h-.7l.3 1.1-3 3-1.6.8-3.4 3.5h-.8v.8l-1.5.3.4-2.6 2.7-3.1h.7l.8-1.6h1.1z"/><path fill="#2e0f0d" d="m218 191 .4 1.5-2 1.5-3.8 1.2-2.6 1.1-2.3.8-3.1 1.2-2.3 1.1-2.3 1.2h-2.3l-3.9 2.3-1.9.7-1.1-.4 2.3-1.5 3.4-1.1v-.8h.8l.4-1.5h.8v.7l3.8-1.1 5.4-2.3 5.3-2 3.1-1h1.5zm-15.3 8"/><path fill="#330c07" d="m377.6 153.4.8.4-9.2 9.2-.4.7h-.8v.8l-2.7 2.3-.3.8h-4.3l2.3-2.7 5.8-5.8v1.2l-1.5 1.9 2.3-.8 1.9-1.9.7-1.1h.8v-.8l2.7-2.3z"/><path fill="#642323" d="m224.2 135 1.1.3-25 25-.3.7h-.8v.8h-.7v-3.4l2.6-3.1h.8v-.8h.8v-.7h.7v-.8h.8l.8-1.5 1.1-.4-.7 1.5-2 2-.7 1-2.7 2.4-.8 2.3 1.2-1.6h.7v-.7l3.1-2.7 2.7-2.7 2.7-3h.7v-.8l3.1-2.7 10.4-10.4z"/><path fill="#e9dbc2" d="M324.3 332.5h10l6.1 2 5 2.6 1.5 1.6v1.1h-3.8l-7.7-1.5-5.7-1.5-.4-.8 6.5.4.4.7 2.3.8 6.9 1.2v-1.2l-2-.8-3.8-1.9-5-1.5-1.9-.4-8.4-.4z"/><path fill="#872c2b" d="M422.9 196v1.1l-2 2.3v1.2h.8v-.8h.8l.8-2 .7 1.2-5.3 5-1.6 2h-.7l-.4 1-3.5-.3 2.3-2.7z"/><path fill="#842e2c" d="M338.5 167.6h3.4l-.7 1.5-6.2 6.1-1.9.8-1.5-.8.7-1.5z"/><path fill="#2d110e" d="m358 177.5 2.4.8.3 1.5-.7.4-.8-.4v5l-1.1 2.7-.4 4.2-.8.4v-3.4l.8-10.8zm-1.5 7h.4l-.4 4.2-1.5 2.3h.7l1.2 1.5-.8.4-1.5-1.5v-2l1.1-1.5h-1.1l-.4 1.2h-.8l.4-2z"/><path fill="#330c07" d="M311.6 144.5h.8l-.8 1.6-10 10-1.9 2.3h-.7v.7l-3.1 2.7-1.5 2h-.8l.8-1.6 1.1-1.2.8-1.5.8.4v-.8h.7v-.7l2-1.6h.7l.8-1.5 4.2-4.2.8-1.2h.7v-.7l.8-.8h-1.2l-1.1.4-.4 1.1-3 2.7-3.9 3.8-.8-.3 10-10 .4-.8.8.4-.4 1.2.7-.4.8.4v-.8h1.2v-.8h.7z"/><path fill="#6a1a1b" d="m219.2 130.7.7.8-1.1 1.5-.4.8h-.8v.8h-1.1v.7l-1.6 1.6-.3.7h-1.2l-.8 1.6-1.1 1.9-1.2.4-2.3 2.7-1.5.3-.4 1.6-.7.8h-1.2l.4-2.7 2.3-2h.8l1.9-1.9 1.9-1.9 1.5-1.1 1.2-2 1.9-1.5.4-.8h.8l.7-1.5z"/><path fill="#310c08" d="M243 108.1h2.6l.8.8-.8 1.1h-.7v.8h-.8v.8l-3 2.6-1.6 2h-.8v.7h-.7v-3.8l3-3.5h.8v-.7z"/><path fill="#641f1d" d="m182.7 173.7 1.2.4-1.2.4-.7 1.5-3.5 3.5-1.1 1.1h-.8l.8-2 1.5-.3v-1.5l-3 2.3-.5 1.5-1.1.4v1.1H173l-1.1 1.6-.8 1.5-2.7 1.6-.7 1.1-1.6.8-1.9 2.3-.4-1.2h.8l.8-1.5 13.4-13.4h.8l.7 1.5 1.2-1.2.4-1.1z"/><path fill="#2b0a0a" d="m442 152.2 1.6.8 2 1.5v.8h.7l1.1 1.5v.8h.8v1.1h.8l2.7 4.6 1.9 5 1.5 4.6.8 1.2.4 3v5.8l-.4 7h-.4l-.4-12.7-.4-3.5h-.7l-1.2-4.6-2-4.6-2.2-4.2-3-3.9-3.5-3.8z"/><path fill="#852f2f" d="m309.3 163.7.8.4-2.3 2.3v.8l1.5.4h3.5l3-2.7 1.2-.8v3.9h2l-.8.3-.8 2-3-.4-6.2-1.6-2.7-.3v-.8l3-2.7z"/><path fill="#0c0d0c" d="M219.6 84.7h15.3l10.7 1.2 2.3.7v.8l-7.6-.8-3.1-.4-16.9-.7z"/><path fill="#575a5a" d="m375.3 371.7.8.4v.7l2.3.8 1.5 1.1v.8l1.2.4v.8l1.1.3v.8h.8l1.5 2 1.2.3.4 2.3 1.5 2.7v1.1h1.1v-6.9l-.7-4.6h.7l.8 3.1v8.8l-.8 3.1-.7-.4-1.6-3.8-2.3-4.2-3-3.9-4.3-3.4-1.9-2z"/><path fill="#741d1c" d="m439 162.6 1.2 1.1 1.9 2.7.4 1.6-1.6.7h-5v-3.4zm2 6.1"/><path fill="#af4648" d="M388 135h6.1l8 1.1 8.5 1.5 8 2 3.9 1.9-.4.7-3.4-1.1-2.3.4v-.8h-1.2v-1.1l-8.8-1.6-2.7-.7-15.7-2z"/><path fill="#5c1f1e" d="M158.2 229h.7v3.4h-.7l-.4 1.2-3.9 3-.3.8h-.8v.8h-.8l-.7 1.5-2 2-.7-.5 1.9-2.3h.8v-1.1h.7l-.4-2 2.7-3 2.7-2.7z"/><path fill="#ae484a" d="m439.4 150.7 1.5.8 3.9 3.4 4.2 5.4 3.4 6.5 1.6 4.6.7 4.6v11.5h-.4l-.3-8.8-1.2-7-2-5.7-3.7-6.9-3.5-4.2-.8-.4v-.7l-1.5-.4-2-2z"/><path fill="#df968f" d="m322.8 380.5 1.5.8 4.2 4.2 1.5 1.9 3.1 2.7 2 1.5-.5 3.5-2.3 3-1.1.8-1.2-.4h.8v-.7h.8v-.8h.7l.4-1.5.4-1.6h.8l-1.2-3-1.9-1.6v-.7l-1.5-.8-1.6-1.6v-.7h-.7v-.8h-.8v-.8l-1.5-.3v10l-.8.3v-8.4z"/><path fill="#28130d" d="m292.8 131.1.8.4v.8h-2v-.8zm-1.9 1.2.8.4-1.2 2.6-.7.4-.4 1.2h-.8v.7h-.8v.8h-.7v.8l-3 2.7-1.2.3v.8h-.8l-.4 1.2-1.1-.4-.8.4v1.1l-2.7.4.4-1.5 1.5-.8 2.3-1.5 2.7-2.7h.8l.7-1.6 2-1.1 1.1-2 1.5-.7z"/><path fill="#9a2f30" d="M159 124.6h.7v.8h-.8v.7h-1.1l-.4 1.2-2.7 1.9-1.9 2-5 5-2.3 3-.4.7h-.7l-.8 1.6-3.8 5-2.3 3-.4-.7 1.1-2 .8-1.1h.8l.7-2 1.2-1.5.4-1.1 2.6-2.3.4-1.5h.8v-.8l1.1-1.2 2.3-2.6h1.2l.8-1.6h.7l.8-1.9 4.6-3.4h.8v-.8z"/><path fill="#b14144" d="m440.2 207.5.3 1.5-3 6.1-2 3.1-1.1 2.7-2.3 3.4h-.8l-.4 2h.8l.4 1.5 1.5.8 2 1.9 1.5-.4.7-.4-.7 2-.4.7-1.5-.8-1.6-1.9-3-2.7-.4-1.9 4.6-7.7 3-5.3 1.6-3.9z"/><path fill="#3f0c07" d="M435.2 187.1h.7v4.3l-3 2.6-7 7v-1.2l3.9-3.8 2-2 2.2-2.3.4-1.5-2 1.2-10.3 10.3-.4 1.2-2.6.7 2.3-2.7 3-2.6 9.6-9.6z"/><path fill="#94292a" d="m408.7 187.9 1.1.4v.8l-1.5.3v1.2h-.8v.8l-1.5.7v1.2l-3 2.7-2.4 1.9-.3.7h-.8l-.4 1.2-2.3-.4 2.3-2.7 2-1.9 3-3.4.4.7h.7l.8-1.5 2-2h.7z"/><path fill="#89302f" d="M356.9 169.5h.4v3.8l-.4.8h-.8l-.7 1.5-2.3 2-.8 1h-.8l-.7 2.4h1.1v-1.5l2-.4-.5-1.2 2-.4v-.7h.7l-.7 1.5-3.1 3h-.8l-.7 1.6-2 2-1.5-.8-.8-.4.8-1.6 9.2-9.2z"/><path fill="#b14344" d="M390.3 143.4h4.2l5.8.8 7.2 1.5 4.6.4 1.6.8v.7l5 .8 3 1.5-.7.8-6.2-2-8.8-2.2-6.1-1.2-9.2-1.1z"/><path fill="#320c08" d="m175.4 115.8.8.4-2.3 1.9-1.2 1.5h-.7l-.8 2h-.8v.7l-1.5.4v.7h-.8l.4-1.5 1.6-.4V120l-2.3 2-2 2.2-4.6 3.5-1.1.7.8-1.5 3.4-3 2-2.4h.7l.8-1.5 1.5-.4.4-1.1 3.4-2zm-5 3.4"/><path fill="#652221" d="M237.6 149.5h.8v4.3l-1.2.7.4-2.7-2.7 2.3h-.8l-.4 1.6-1.9 1.9h-1.1l-.8 1.5-1.5 1.6-.8 1.9h-1.1v.7l-1.6.4-.4.8-1.9 2h-.7l-.4 1.5-1.6.3.8-1.5 3.8-3.8h.8l.8-1.6 2.3-2.3h.7v-.7h.8l.8-1.6h.7l.8-1.5 3.9-3.8z"/><path fill="#330c08" d="m296.7 141.1.4 1.1-4.7 4.7-1.9 2.3-1.9 1.9 2-.4 1.5-.8-2.3 2.7-6.6 6.5V158l3.1-3 .4-1.6-2.3 1.9-1.2-.8 2.3-2.3h.8v-.7l2.7-2.3.4-.8h.7l.8-1.5 3-2.7zm-10 11.9"/><path fill="#380a06" d="M376.8 143.4h3.5l-.8 1.5-1.1.8v-1.5l-2 .7-1.9 2-7.6 7.6-.4.8h-.8v.8h-.7l-.4 1.1-3.1 2.7-2.3 2.7 2-.4 1.8-2 .8.5-2.7 3-3 2.3.7-2.3-1.5-.7 17.6-17.7z"/><path fill="#883131" d="m396 166.8.4 1.2 1.2-.4h3v.7h-.7v.8l-3.1 2.7-.4 3.8 3-2.7 2.8-3h.7v-.8l1.6-1.5h3.8v.7h-.8v.8l-1.5.8v-1.6l-2 1.2-2.6 3h-.8v1.2l-1.5.4-.4 1.5-1.9.8-1.2-.8v-3.8l2-2 .7-1h-5.7l-1.2-.8h3.9v-.8z"/><path fill="#0e1010" d="M413 414.6h9.9l1.5.8-8.4.8h-15l1.2-1.2z"/><path fill="#818688" d="M431 262.3h4.2l6.1 1.6v.7l-2.3-.4v.8l2.3.8 5 3.4 3.4 3.5 2.7 4.2-.4 1.2-3.4-5.4-2.7-2.7-5-3-7.7-3.5-2.3-.4z"/><path fill="#681717" d="m192.7 109.3.8.3-5 5h-.8v.8l-1.5 1.1h-.8l-.4 1.6h-.7l-.8 1.5h-2l.5-1.1h.7v-.8h.8l.4-1.5.4-.8h.7l.8-2h.8v-.7l1.5-1.1h.8v-.8l-.8-.4 3.8-.8z"/><path fill="#320806" d="M403.7 146.5h3.5l10.7 2.7 3.5 1.5 4.6 2 5.3 3 3.1 2.3v.7l-1.5-.7-2.3-1.2v-.7l-2.3-.8-3.1-2-1.5-.3v-.8l-2.7-.4-3.1-1.5-6.1-1.5-8.1-2z"/><path fill="#8a2b29" d="M382.2 144.5h.8l-.8 1.6-10 10h-.7l-.4 1.1-1.5.4-1.2.4v1.1h-.8l-.3.8-.4-1.5h.7v-1.2l2.3-.8.8-2.3h.8l.7-1.5h.8v-.8l1.5-.7 2-.4.7-.8.8-1.5 1.2-.4.7-1.5h.8v-.8l1.5-.4z"/><path fill="#943433" d="m333.9 126.9 3 .4 9.3 1.9 7.6 1.5 9.2 1.6 5 .4-1.5.7-6.5-.4-6.2-1.1-5.3-1.2-3.9-.7-5.7-1.2-5-1.5z"/><path fill="#8b312f" d="m406.8 173.3.4.8-.8 1.1h-.8l-.7 1.6-.8 1.1-.8-.4-.4 1.2-3 2.7.7.4v-.8l1.6.4v-.8h.7v-.8h.8l.4-1.5 1.5-1.1 1.2.3-9.2 9.3h-.8v-.8h.8v-.8h.7l-.3-1.1h-1.2l.8-1.6z"/><path fill="#28110d" d="m267.9 169.9 1.5.4-.7 1.5-1.2 2-5.4 5.3-1.5-.4-2 .8 2.4-2.7z"/><path fill="#7a2626" d="m258.7 119.6.4 1.2-.4.7-.4.4 1.5.4-2.3 2.7-3 3H251v-.7h.8l.7-1.5 1.2-.4.8-1.6z"/></svg>